<mxfile host="65bd71144e">
    <diagram id="TYERYPpa2TcAInE7Yv0Z" name="Page-1">
        <mxGraphModel dx="3902" dy="1438" grid="1" gridSize="10" guides="1" tooltips="1" connect="1" arrows="1" fold="1" page="1" pageScale="1" pageWidth="827" pageHeight="1169" math="0" shadow="0">
            <root>
                <mxCell id="0"/>
                <mxCell id="1" parent="0"/>
                <mxCell id="82" value="" style="edgeStyle=orthogonalEdgeStyle;rounded=0;orthogonalLoop=1;jettySize=auto;html=1;" parent="1" source="10" target="81" edge="1">
                    <mxGeometry relative="1" as="geometry"/>
                </mxCell>
                <mxCell id="10" value="FD_ZERO()&lt;br&gt;FD_SET()" style="whiteSpace=wrap;html=1;rounded=0;" parent="1" vertex="1">
                    <mxGeometry x="-450" y="300" width="120" height="60" as="geometry"/>
                </mxCell>
                <mxCell id="132" value="" style="edgeStyle=orthogonalEdgeStyle;rounded=0;orthogonalLoop=1;jettySize=auto;html=1;" parent="1" source="12" target="131" edge="1">
                    <mxGeometry relative="1" as="geometry"/>
                </mxCell>
                <mxCell id="12" value="FD_ISSET()" style="whiteSpace=wrap;html=1;rounded=0;" parent="1" vertex="1">
                    <mxGeometry x="-450" y="465" width="120" height="60" as="geometry"/>
                </mxCell>
                <mxCell id="26" value="" style="edgeStyle=orthogonalEdgeStyle;rounded=0;orthogonalLoop=1;jettySize=auto;html=1;" parent="1" source="14" target="25" edge="1">
                    <mxGeometry relative="1" as="geometry"/>
                </mxCell>
                <mxCell id="14" value="accept()" style="whiteSpace=wrap;html=1;rounded=0;" parent="1" vertex="1">
                    <mxGeometry x="-740" y="657.6299999999999" width="120" height="60" as="geometry"/>
                </mxCell>
                <mxCell id="529" style="edgeStyle=orthogonalEdgeStyle;rounded=0;orthogonalLoop=1;jettySize=auto;html=1;" edge="1" parent="1" source="25">
                    <mxGeometry relative="1" as="geometry">
                        <mxPoint x="-800" y="777.6299999999999" as="targetPoint"/>
                    </mxGeometry>
                </mxCell>
                <mxCell id="25" value="FD_SET()&lt;br&gt;" style="whiteSpace=wrap;html=1;rounded=0;" parent="1" vertex="1">
                    <mxGeometry x="-740" y="747.6299999999999" width="120" height="60" as="geometry"/>
                </mxCell>
                <mxCell id="4" value="" style="edgeStyle=orthogonalEdgeStyle;rounded=0;orthogonalLoop=1;jettySize=auto;html=1;" parent="1" edge="1">
                    <mxGeometry x="210" y="290" as="geometry">
                        <mxPoint x="180" y="220" as="sourcePoint"/>
                    </mxGeometry>
                </mxCell>
                <mxCell id="6" value="" style="edgeStyle=orthogonalEdgeStyle;rounded=0;orthogonalLoop=1;jettySize=auto;html=1;" parent="1" edge="1">
                    <mxGeometry x="210" y="290" as="geometry">
                        <mxPoint x="180" y="300" as="sourcePoint"/>
                    </mxGeometry>
                </mxCell>
                <mxCell id="44" value="" style="edgeStyle=orthogonalEdgeStyle;rounded=0;orthogonalLoop=1;jettySize=auto;html=1;entryX=0.5;entryY=0;entryDx=0;entryDy=0;" parent="1" source="40" target="10" edge="1">
                    <mxGeometry relative="1" as="geometry">
                        <mxPoint x="-390" y="310" as="targetPoint"/>
                    </mxGeometry>
                </mxCell>
                <mxCell id="40" value="init Server" style="swimlane;" parent="1" vertex="1">
                    <mxGeometry x="-490" y="20" width="200" height="260" as="geometry">
                        <mxRectangle x="80" y="140" width="90" height="23" as="alternateBounds"/>
                    </mxGeometry>
                </mxCell>
                <mxCell id="51" value="" style="edgeStyle=orthogonalEdgeStyle;rounded=0;orthogonalLoop=1;jettySize=auto;html=1;entryX=0.5;entryY=0;entryDx=0;entryDy=0;" parent="40" source="48" target="49" edge="1">
                    <mxGeometry relative="1" as="geometry"/>
                </mxCell>
                <mxCell id="48" value="socket()" style="rounded=0;whiteSpace=wrap;html=1;" parent="40" vertex="1">
                    <mxGeometry x="40" y="30" width="120" height="60" as="geometry"/>
                </mxCell>
                <mxCell id="52" value="" style="edgeStyle=orthogonalEdgeStyle;rounded=0;orthogonalLoop=1;jettySize=auto;html=1;" parent="40" source="49" target="50" edge="1">
                    <mxGeometry relative="1" as="geometry"/>
                </mxCell>
                <mxCell id="49" value="bind()" style="whiteSpace=wrap;html=1;rounded=0;" parent="40" vertex="1">
                    <mxGeometry x="40" y="110" width="120" height="60" as="geometry"/>
                </mxCell>
                <mxCell id="50" value="listen()" style="whiteSpace=wrap;html=1;rounded=0;" parent="40" vertex="1">
                    <mxGeometry x="40" y="190" width="120" height="60" as="geometry"/>
                </mxCell>
                <mxCell id="60" value="" style="edgeStyle=orthogonalEdgeStyle;rounded=0;orthogonalLoop=1;jettySize=auto;html=1;" parent="1" source="53" target="59" edge="1">
                    <mxGeometry relative="1" as="geometry"/>
                </mxCell>
                <mxCell id="53" value="init client" style="swimlane;" parent="1" vertex="1">
                    <mxGeometry x="1050" y="10" width="200" height="180" as="geometry">
                        <mxRectangle x="80" y="140" width="90" height="23" as="alternateBounds"/>
                    </mxGeometry>
                </mxCell>
                <mxCell id="54" value="" style="edgeStyle=orthogonalEdgeStyle;rounded=0;orthogonalLoop=1;jettySize=auto;html=1;entryX=0.5;entryY=0;entryDx=0;entryDy=0;" parent="53" source="55" target="57" edge="1">
                    <mxGeometry relative="1" as="geometry"/>
                </mxCell>
                <mxCell id="55" value="socket()" style="rounded=0;whiteSpace=wrap;html=1;" parent="53" vertex="1">
                    <mxGeometry x="40" y="30" width="120" height="60" as="geometry"/>
                </mxCell>
                <mxCell id="57" value="connect()" style="whiteSpace=wrap;html=1;rounded=0;" parent="53" vertex="1">
                    <mxGeometry x="40" y="110" width="120" height="60" as="geometry"/>
                </mxCell>
                <mxCell id="79" value="" style="edgeStyle=orthogonalEdgeStyle;rounded=0;orthogonalLoop=1;jettySize=auto;html=1;" parent="1" source="59" target="77" edge="1">
                    <mxGeometry relative="1" as="geometry"/>
                </mxCell>
                <mxCell id="59" value="&lt;span style=&quot;font-weight: normal&quot;&gt;FD_ZERO()&lt;br&gt;FD_SET()&lt;br&gt;&lt;/span&gt;" style="whiteSpace=wrap;html=1;fontStyle=1;startSize=23;" parent="1" vertex="1">
                    <mxGeometry x="1090" y="220" width="120" height="60" as="geometry"/>
                </mxCell>
                <mxCell id="85" value="" style="edgeStyle=orthogonalEdgeStyle;rounded=0;orthogonalLoop=1;jettySize=auto;html=1;" parent="1" source="77" target="84" edge="1">
                    <mxGeometry relative="1" as="geometry"/>
                </mxCell>
                <mxCell id="77" value="select()" style="whiteSpace=wrap;html=1;rounded=0;" parent="1" vertex="1">
                    <mxGeometry x="1090" y="300" width="120" height="60" as="geometry"/>
                </mxCell>
                <mxCell id="83" value="" style="edgeStyle=orthogonalEdgeStyle;rounded=0;orthogonalLoop=1;jettySize=auto;html=1;" parent="1" source="81" target="12" edge="1">
                    <mxGeometry relative="1" as="geometry"/>
                </mxCell>
                <mxCell id="81" value="select()" style="rounded=0;whiteSpace=wrap;html=1;" parent="1" vertex="1">
                    <mxGeometry x="-450" y="380" width="120" height="60" as="geometry"/>
                </mxCell>
                <mxCell id="130" value="" style="edgeStyle=orthogonalEdgeStyle;rounded=0;orthogonalLoop=1;jettySize=auto;html=1;entryX=0.5;entryY=0;entryDx=0;entryDy=0;" parent="1" source="84" target="125" edge="1">
                    <mxGeometry relative="1" as="geometry">
                        <Array as="points">
                            <mxPoint x="1150" y="470"/>
                            <mxPoint x="1150" y="470"/>
                        </Array>
                    </mxGeometry>
                </mxCell>
                <mxCell id="84" value="FD_ISSET()" style="whiteSpace=wrap;html=1;rounded=0;" parent="1" vertex="1">
                    <mxGeometry x="1090" y="390" width="120" height="60" as="geometry"/>
                </mxCell>
                <mxCell id="329" value="" style="edgeStyle=orthogonalEdgeStyle;rounded=0;orthogonalLoop=1;jettySize=auto;html=1;" parent="1" source="102" target="328" edge="1">
                    <mxGeometry relative="1" as="geometry"/>
                </mxCell>
                <mxCell id="102" value="accept()" style="whiteSpace=wrap;html=1;rounded=0;" parent="1" vertex="1">
                    <mxGeometry x="910" y="550" width="120" height="60" as="geometry"/>
                </mxCell>
                <mxCell id="117" value="&lt;span style=&quot;color: rgb(0, 0, 0); font-family: helvetica; font-size: 12px; font-style: normal; font-weight: 400; letter-spacing: normal; text-align: center; text-indent: 0px; text-transform: none; word-spacing: 0px; background-color: rgb(248, 249, 250); display: inline; float: none;&quot;&gt;//Add new connected socket to FD&lt;/span&gt;" style="text;whiteSpace=wrap;html=1;" parent="1" vertex="1">
                    <mxGeometry x="-730" y="747.6299999999999" width="210" height="30" as="geometry"/>
                </mxCell>
                <mxCell id="118" value="&lt;span style=&quot;color: rgb(0 , 0 , 0) ; font-family: &amp;#34;helvetica&amp;#34; ; font-size: 12px ; font-style: normal ; font-weight: 400 ; letter-spacing: normal ; text-align: center ; text-indent: 0px ; text-transform: none ; word-spacing: 0px ; background-color: rgb(248 , 249 , 250) ; display: inline ; float: none&quot;&gt;//Store listener into FD Set&lt;/span&gt;" style="text;whiteSpace=wrap;html=1;" parent="1" vertex="1">
                    <mxGeometry x="-316" y="315" width="160" height="30" as="geometry"/>
                </mxCell>
                <mxCell id="125" value="Socket is STDIN / tcp?" style="rhombus;whiteSpace=wrap;html=1;rounded=0;" parent="1" vertex="1">
                    <mxGeometry x="1065" y="485" width="170" height="55" as="geometry"/>
                </mxCell>
                <mxCell id="134" value="" style="edgeStyle=orthogonalEdgeStyle;rounded=0;orthogonalLoop=1;jettySize=auto;html=1;" parent="1" source="131" target="133" edge="1">
                    <mxGeometry relative="1" as="geometry"/>
                </mxCell>
                <mxCell id="136" value="" style="edgeStyle=orthogonalEdgeStyle;rounded=0;orthogonalLoop=1;jettySize=auto;html=1;entryX=0.5;entryY=0;entryDx=0;entryDy=0;" parent="1" source="131" target="154" edge="1">
                    <mxGeometry relative="1" as="geometry">
                        <mxPoint x="70" y="660" as="targetPoint"/>
                    </mxGeometry>
                </mxCell>
                <mxCell id="131" value="Socket is Listener / tcp?" style="rhombus;whiteSpace=wrap;html=1;rounded=0;" parent="1" vertex="1">
                    <mxGeometry x="-475" y="550" width="170" height="55" as="geometry"/>
                </mxCell>
                <mxCell id="133" value="" style="shape=waypoint;size=6;pointerEvents=1;points=[];fillColor=#ffffff;resizable=0;rotatable=0;perimeter=centerPerimeter;snapToPoint=1;rounded=0;" parent="1" vertex="1">
                    <mxGeometry x="-700" y="637.31" width="40" height="40" as="geometry"/>
                </mxCell>
                <mxCell id="139" value="&lt;span style=&quot;color: rgb(0 , 0 , 0) ; font-family: &amp;#34;helvetica&amp;#34; ; font-size: 12px ; font-style: normal ; font-weight: 400 ; letter-spacing: normal ; text-align: center ; text-indent: 0px ; text-transform: none ; word-spacing: 0px ; background-color: rgb(248 , 249 , 250) ; display: inline ; float: none&quot;&gt;//Store defult STDIN into FD Set&lt;/span&gt;" style="text;whiteSpace=wrap;html=1;" parent="1" vertex="1">
                    <mxGeometry x="1220" y="220" width="190" height="30" as="geometry"/>
                </mxCell>
                <mxCell id="434" style="edgeStyle=orthogonalEdgeStyle;rounded=0;orthogonalLoop=1;jettySize=auto;html=1;exitX=0.5;exitY=1;exitDx=0;exitDy=0;" parent="1" source="146" edge="1">
                    <mxGeometry relative="1" as="geometry">
                        <mxPoint x="870" y="800" as="targetPoint"/>
                        <Array as="points">
                            <mxPoint x="970" y="800"/>
                        </Array>
                    </mxGeometry>
                </mxCell>
                <mxCell id="146" value="send()" style="whiteSpace=wrap;html=1;rounded=0;" parent="1" vertex="1">
                    <mxGeometry x="910" y="720.3199999999999" width="120" height="60" as="geometry"/>
                </mxCell>
                <mxCell id="382" value="" style="edgeStyle=orthogonalEdgeStyle;rounded=0;orthogonalLoop=1;jettySize=auto;html=1;" parent="1" source="154" target="253" edge="1">
                    <mxGeometry relative="1" as="geometry"/>
                </mxCell>
                <mxCell id="445" style="edgeStyle=orthogonalEdgeStyle;rounded=0;orthogonalLoop=1;jettySize=auto;html=1;entryX=0.5;entryY=1;entryDx=0;entryDy=0;" parent="1" source="154" target="406" edge="1">
                    <mxGeometry relative="1" as="geometry">
                        <Array as="points">
                            <mxPoint x="110" y="630"/>
                        </Array>
                    </mxGeometry>
                </mxCell>
                <mxCell id="154" value="&lt;b&gt;recv+size&lt;/b&gt;" style="rounded=0;whiteSpace=wrap;html=1;" parent="1" vertex="1">
                    <mxGeometry x="-164.5" y="605" width="120" height="60" as="geometry"/>
                </mxCell>
                <mxCell id="491" style="edgeStyle=orthogonalEdgeStyle;rounded=0;orthogonalLoop=1;jettySize=auto;html=1;entryX=0.5;entryY=0;entryDx=0;entryDy=0;" edge="1" parent="1" source="157" target="438">
                    <mxGeometry relative="1" as="geometry"/>
                </mxCell>
                <mxCell id="492" style="edgeStyle=orthogonalEdgeStyle;rounded=0;orthogonalLoop=1;jettySize=auto;html=1;entryX=0.5;entryY=0;entryDx=0;entryDy=0;" edge="1" parent="1" source="157" target="320">
                    <mxGeometry relative="1" as="geometry"/>
                </mxCell>
                <mxCell id="496" style="edgeStyle=orthogonalEdgeStyle;rounded=0;orthogonalLoop=1;jettySize=auto;html=1;entryX=0.5;entryY=0;entryDx=0;entryDy=0;" edge="1" parent="1" source="157" target="435">
                    <mxGeometry relative="1" as="geometry"/>
                </mxCell>
                <mxCell id="497" style="edgeStyle=orthogonalEdgeStyle;rounded=0;orthogonalLoop=1;jettySize=auto;html=1;entryX=0.5;entryY=0;entryDx=0;entryDy=0;" edge="1" parent="1" source="157" target="161">
                    <mxGeometry relative="1" as="geometry"/>
                </mxCell>
                <mxCell id="498" style="edgeStyle=orthogonalEdgeStyle;rounded=0;orthogonalLoop=1;jettySize=auto;html=1;entryX=0.5;entryY=0;entryDx=0;entryDy=0;" edge="1" parent="1" source="157" target="267">
                    <mxGeometry relative="1" as="geometry"/>
                </mxCell>
                <mxCell id="157" value="Which Client Commands?" style="rhombus;whiteSpace=wrap;html=1;rounded=0;" parent="1" vertex="1">
                    <mxGeometry x="-174.5000000000001" y="846.63" width="140" height="60" as="geometry"/>
                </mxCell>
                <mxCell id="161" value="NEW_SESS&amp;lt;session ID&amp;gt;" style="rounded=0;whiteSpace=wrap;html=1;" parent="1" vertex="1">
                    <mxGeometry x="190" y="930" width="128.5" height="40.32" as="geometry"/>
                </mxCell>
                <mxCell id="454" style="edgeStyle=orthogonalEdgeStyle;rounded=0;orthogonalLoop=1;jettySize=auto;html=1;entryX=0.5;entryY=1;entryDx=0;entryDy=0;" parent="1" source="168" target="411" edge="1">
                    <mxGeometry relative="1" as="geometry"/>
                </mxCell>
                <mxCell id="540" value="" style="edgeStyle=orthogonalEdgeStyle;rounded=0;orthogonalLoop=1;jettySize=auto;html=1;" edge="1" parent="1" source="168" target="539">
                    <mxGeometry relative="1" as="geometry"/>
                </mxCell>
                <mxCell id="168" value="&lt;b&gt;recv+size&lt;/b&gt;" style="rounded=0;whiteSpace=wrap;html=1;" parent="1" vertex="1">
                    <mxGeometry x="1310" y="550" width="120" height="60" as="geometry"/>
                </mxCell>
                <mxCell id="169" value="//Len Fix SIze 6&lt;br&gt;5len+1':'" style="text;html=1;align=center;verticalAlign=middle;resizable=0;points=[];autosize=1;strokeColor=none;" parent="1" vertex="1">
                    <mxGeometry x="-264.5" y="609.98" width="100" height="30" as="geometry"/>
                </mxCell>
                <mxCell id="479" value="" style="edgeStyle=orthogonalEdgeStyle;rounded=0;orthogonalLoop=1;jettySize=auto;html=1;" edge="1" parent="1" source="234" target="157">
                    <mxGeometry relative="1" as="geometry"/>
                </mxCell>
                <mxCell id="234" value="&lt;b&gt;Deseralize&lt;br&gt;to Structure&lt;/b&gt;" style="whiteSpace=wrap;html=1;rounded=0;" parent="1" vertex="1">
                    <mxGeometry x="-164.5" y="764.98" width="120" height="60" as="geometry"/>
                </mxCell>
                <mxCell id="249" value="Create a new session in the database&amp;nbsp;&amp;nbsp;" style="rounded=0;whiteSpace=wrap;html=1;" parent="1" vertex="1">
                    <mxGeometry x="194.25" y="1070" width="120" height="51" as="geometry"/>
                </mxCell>
                <mxCell id="537" style="edgeStyle=orthogonalEdgeStyle;rounded=0;orthogonalLoop=1;jettySize=auto;html=1;" edge="1" parent="1" source="250">
                    <mxGeometry relative="1" as="geometry">
                        <mxPoint x="254.25" y="1480" as="targetPoint"/>
                    </mxGeometry>
                </mxCell>
                <mxCell id="250" value="Return NS_ACK&amp;lt;sessionID&amp;gt;" style="rounded=0;whiteSpace=wrap;html=1;" parent="1" vertex="1">
                    <mxGeometry x="190" y="1160" width="128.5" height="40" as="geometry"/>
                </mxCell>
                <mxCell id="255" value="" style="edgeStyle=orthogonalEdgeStyle;rounded=0;orthogonalLoop=1;jettySize=auto;html=1;" parent="1" source="253" target="234" edge="1">
                    <mxGeometry relative="1" as="geometry"/>
                </mxCell>
                <mxCell id="253" value="atoi()&lt;br&gt;len" style="rounded=0;whiteSpace=wrap;html=1;" parent="1" vertex="1">
                    <mxGeometry x="-164.5" y="687.46" width="120" height="60" as="geometry"/>
                </mxCell>
                <mxCell id="256" value="" style="shape=image;verticalLabelPosition=bottom;labelBackgroundColor=#ffffff;verticalAlign=top;aspect=fixed;imageAspect=0;image=data:image/png,iVBORw0KGgoAAAANSUhEUgAAAi4AAADWCAYAAAD2FAmCAAAgAElEQVR4Ae29z2sbydb/33/FF7TW1rvsZqWVNtnMJpss9IA3WWQRmIVAi4EsLgxcgSAQGAgIzMCFAdMXQxgIBhG4DFzMI4YvhIsRXB5CMIJLuAShxWCMOB+quk71qeqq6m5bsmX7PZDpdv+oOvWqUp93n/rRGeE/EAABEAABEAABELgnBLJ7YifMBAEQAAEQAAEQAAGCcEEjAAEQAAEQAAEQuDcEIFzuTVXBUBAAARAAARAAAQgXtAEQAAEQAAEQAIF7QwDC5d5UFQwFARAAARAAARCAcEEbAAEQAAEQAAEQuDcEIFzuTVXB0FsnsF7Q7HhMg06PxvP1rWePDEEABEAABKoEIFyqTHDk0RPY0Pr8iAadAxqMc5ovLx89EQAAARAAgX0hAOGyLzUBO/aGwOYip0MlWqafCHGWvakWGAICIAACmsAdCpdLunj/G/1xdV9q4r7Ze1+47pudX2k2fEJZZ0Sz1WbfjIM9IAACIPDoCdydcFmf0fjphOb3RbjcN3sffdO+JoCrOY27GYTLNfHhNhAAARDYNYG7ES6bC5qN+pR1x/dDuNw3e3fdah5y+ixcsmc0Xfz5kEuKsoEACIDAvSRw+8JlfU75sE9Zlt0P4XLf7L2XzXCPjN6c07TfoSx7QsPZ1z0yDKaAAAiAAAgoAtsTLmrq6HRIPSVIsg71hlOaLb7Ren5EUz2VdEPrRU7DnnIK6hrvn46+rGgxO6E8f6ev647ndLVZ0vyI0+3TD8Pn9P8597pTVa/mY+rK89GojsrrVxoPDkpbekOansxpqYc2NLG3phEpJnlOuebSpUH+pbhhvaDT8YA62s4+DY/OTJ7q9CUt57mwyz/v5rlZzunEcldM1UyYX2m2WLkX6r9UmadlHajyzha0Xp/Rm+kf5PbaqfLPaMoiM+vTcDqjxfq/NH/zSyVSVrVDdbcMaHz8kRbr2FgRlcdHOrYslP0qn/e1M3mq+aXKHUARPWTGuGQd6k/PKWZ59HacAAEQAAEQ2CmB7QiXzWfKD59Qb5iXTso6Z1dYqNJYceGIii+UD7qliMgy6v50TB9Ul5IVIgd0mH+mDW1oPZ8YkVRNn+gbzcdPi/ucPAzL9SeaDg6oM3hLZzzV1RxTeXUOc7oQHitsb029rGY07EhxVgiXzfKURhXx1qHe+IzWSrTMXptyyXv5vMzTTNntD+lovjQOdkWLfGTu79NodiEc7yVd5C+p0xtRbkXNihanExp0MtIiUSRfzKzp0zA/NzNrlMj4UAgqhylPHc4cnpvl7zQxotDnWWTDZe1Qb3RqhNslLc/eanvKOlccZB23LbcoVKPdP2kxfabFN4RLI2C4CARAAARulcAWhMuGVrMRdbIXlC/dd3bSgub7yuJdaSEgBUxiSuoyp4EWNNKpMbsrWuYvwsJF23RAWW9CcycSwOVQjtLtJkjby3lGtlbAdOn5+C39OHxDpywchFjKOq9oevyaBsNfymiDPO+IBaJCWDyl8fyblzE7Xm+AqbZDRH3sXYWgOVDRLXvMRB0GOS3tsWJH53sgxyZxhMJPW/Ksto3C/oyy/pQWQiSqiJMWWKpuK3V0jXJ79tf/yW0HY1zqWeEKEAABELh9AlsQLuwoXWdfFEU5rwlNvFVH00JgTfNxT4uOznBGoQ4Pnfa1hAs700g3AA/C7byk/KJcdCxtb02l2cGeMrJQ3rNZTKmvBVhIpLG9SkxJ5x8XFipla29WignOJ8h0NaMfJ0K48DiP4JTgrzT78WfRVcRCIyCionXEbSajoD3R+9qXuyTdcE/NHut1TQSs4T24DARAAARA4NYIbEG48Buqcq7p8RhcKutYvShCcb4ULn73Bd+vt1Hnps4Km5w8ODoQitI4qTt/pO11Lq3+YYVLKSKci5LlkCJECBcbxVHM0/8sQ5uPGn8kojqOMfyHiHr1ZFcUn2+4tXn6vGvqOMbsOuVuaCqp7kfdFfZMdI81vhkXggAIgAAI3BKBLQgXDt9LB5oeYJkWAjVOjcFEnaK6ICJcrEP0HSknGt6m7Q3fY4/aPLcoXLjsga4cm6+/w11kVugoAfOOTuz4GHkDR1FEnToDl+W11X09cNYMsC6Elc+7jLhUu4p0yKhYS8UZ20JE1yl31bzAEW5z6B4KwMEhEAABENgrAlsRLqpEcjBmGQUIR2DSQoCdSHXAqEOOnZjv3PRFD1u4WH5thEtRSXQ24dlMLEpiEZjIQNloBEbNhnpfzELi2USL4+g4JDvGJbBeCndr+WNcrl1up+HE/uDZXIi4xAjhOAiAAAjsA4GtCZeiMMJ5yTd7PWOmLK51QE43Dp+/DeESGePCJnjbtL3exf6fO4i4WMceHIPiG1D9uzqVODwQVt+ppqOfFNPTS0HqjWexa914QjUpLoUwEjOdrADuHNL03B3hdNNyV0kEjugxLk/M7LXAeRwCARAAARC4UwJbFi5cFh4vYNZI8RxsWgjsULiQHLvhzypi29X2T1qcfLCzXdL2yvsC+zsQLmTHevD08EC++tBX+sfsX2K2kHednbKuoi+hwdXy+nLqtBIwdlCt7YIK2JIULjpMR2eTEY3GP4gp4Iluxm2VWxarsm+6sbwB2pXLcAAEQAAEQOBOCGxBuFzR8uRv4Q/SWUfjjh2wQsATNAWBUrhY5xhCYwVBwOHy7CAV9XGiOnLsRmgWj8loPaejfGHXQEnbGzJOHLN2bnGMC/EgYzXluRqZ4Nw3i19pwqu/Lj/QlPf5Ar3ltGQU6gudTP8RmNElZjmZaczJKEhKuOg6etYyssG2tii3U9Ymf3A3Y6S+miSBa0AABEAABHZGYDvCJX8Znj4amVZrhUDGXQ4rOj/6mU70FGThnFJjODht9fZvF5IzkZ7DVzT+6Xkx48YXR7orgFfvVautfigXzdNBgDM6Gv0lPB06aG9N3VjhIoWBuCfl3J2pza74K8eIqGiJ10WjV9/9hYaDN+VaNSqfwLooOrqkF1yTAlBFpp4F1oghYqHCopL/zgJjVexgWh3N+Q+tF+9pOrtQlM3aP1z/gkfNbuty16RXPV0KZzsjq3oRjoAACIAACNwRgS0JF7XYGy/zz+MSeBVXfwVXorKrQwwQ1eNgylVY9XgKX3Q4kGT0hNPhN/H/lgvQ8VgbEXkJr17LabSx1zEo8AevDmvSrgiHFZ1PD83S/4F1XmTkSPF1xgp5aXM5eetHYlgg8TL/2lol9NRnGLpi9Vp1grvUeJl/s0Icj2XpvaYZrzhsBaSqf145WXUrvaHh4XPRBSRXJBazitje4NYXZMq2luUO1Er6EJcdEZc0J5wFARAAgbshsB3horuKvtFilotv2/hCRhZQDMy00YLyTbccBGocvhAdMhUiFkfqOjk7hsP9yvEeU54HvpfjfFtJ3Z/61k3IXteS6l/sAE0ZrGM2DpGFhD3O1xVTh8uoFB/nrVjPRa890vBbP7qrSEU9PppvJ5n0HCHDpTBdRfpbS3JgridkzOWb5Rkd2W8aCY5WeFUjW8QiqFJ+LidvfcGmMlWCq2G5uUhNtzZC5k/hbpoArgMBEAABENglgS0Il12ah7QfLAElaiY/l5GbYEHNgODuKDyGKnjPDQ9a4SIF4g3TxO0gAAIgAAJbIwDhsjWUSKg5AfURzFfBMTTVNL5Qfvj69oQLd31Fo3xVC3EEBEAABEDg9ghAuNwea+SkCfDAXHewcRhO8RXwfuqbVeEbb3CUvyyOiMsNIOJWEAABENgZAQiXnaFFwmECYiyTXmH3hGb8tWx7QzGGJZ8OqVcZ0Gwv2t0OPrS4O7ZIGQRAAARuSADC5YYAcXt7AnZ13JqBueU09/Z53PSOYuZZl3rDaUBY3TR13A8CIAACIHBdAhAu1yWH+25IYEWL2Qkdj/1vJxUzwcIff7xhlm1vt5876NN4vm57N64HARAAARDYAQEIlx1ARZIgAAIgAAIgAAK7IQDhshuuSBUEQAAEQAAEQGAHBCBcdgAVSYIACIAACIAACOyGAITLbrgiVRAAARAAARAAgR0QgHDZAVQkCQIgAAIgAAIgsBsCEC674YpUQQAEQAAEQAAEdkAAwmUHUJEkCIAACIAACIDAbghAuOyGK1IFARAAARAAARDYAQEIlx1ARZIgAAIgAAIgAAK7IQDhshuujyTVFZ1PD6mTdag3OqXl5iEV+5KW898oz9/RsNehbJDTsk3x1p9oOjigLOvTaHZBDwpNGw64FgRAAAS2TADCZctAH1dyD1W4XNEyf0GZ/JYShMvjatooLQiAwN4SgHDZ26qBYXdP4CvNhk8KAdNWuNy98bAABEAABB4kAQiXB1mtKNR2CKxpPu7tn3DZfKb3J5/o6lqFvKSL97/RH9e7+Vo54iYQAAEQ2CYBCJdt0kRaD4zAPgqXDa3nE3o6nl9PuKzPaPx0QnMIlwfWVlEcEHg8BCBcHk9do6StCeyfcNksT2nU61D3OsJlc0GzUZ+y7hjCpXVbwA0gAAL7QgDCZV9qAnbsIYF9Ei4bWi/yYoZTlrUXLutzyof9otsLwmUP2xpMAgEQaEoAwqUpqVu87mo+pq6c0ZL1aDxfWwsq5x1HtKLF7MRO47Vv5pslzY+G1NPpdqg3/IXmy0ubZrmj7p9aB5n1hjSdLWi9PqM30z9E90QknzIhs6cc7kc6Hg+oY8vUp+H0fTj/9YJmeU75VNlalnuzPKMjdrxZn4ZHZ/Hp16qsJ2Yas8mzMxjTsSpHxb7iwGY5pxOdZ1Y4996I8sXF9ca4RMqgc4qcS5dvRYt8ZOrO2GdZ1okYV/A4M6VUGt2/UP6rN4PKpG3bjja8OtOqO/6dvugp43+jsZr6bQYwK5a5re9UW4uwzw5oMP6VZotVcYH4P0ecMM1cQMEuCDwyAhAue1vhxViGQmiUDrw09xvNx0+9N2gxC0Y6H7umiOv0Ooc5XTgLjFzSRf6SOtpps9NY0eJ0QoOOdJCRfErjzN4lLWevqees83JJy7O3Oj3XifZofPp3GnakjarcK1qfHwWuP6DD/HN1fRRd1mdC2EjHHVpvZmPSV87yAy3WCoi65wONDwc0eK7WYsmInXKliP6B1SxQBiOXgufalK+MALmiwjci/LcVvI7QVdd6ddJ5SflFSNQSbRZT6ncGNDlb0BkPXDZtTTG6MF1Zbt1mlHUOaXrObYrtM+z7QzqaL01dSpFWXQMHwoXZYQsCj5cAhMs+1/0yp4F2CiHhIt6AK47oC+WDrna43eFb+nn4uoia6LLy2itKIDyj6eLPkoB2rF0a5F/KY3qvEDQHlXEVIp/KOaLNRU6HSoj0p7QICSRVtt6E5losiCxtub+j4bs3NBxNy7dvKcL8dDefKT98Qr3xWSWyoh2uZvmEhrOvNrPCxk74HrZf3dd2OrQtQ6Du7LmW5aNdCReFQwjlqHDZ0Gr2I/Udvn/SYvqsEHfPX9N49LoUIU6Ur9oOCvZPaTz/Zuuj2BFpdkY0WzmNx7sWf4IACDw2AhAu+1zj1sEFnB+lhEvp4DqDIzr3hYF983fTZefeGc7Ifzem1Yx+nPgzWcp8qhGA0vkE00uV7WpO464SVgc0mH7yRIhynqOi28kRbHz8BeXLwJQZm6YUIRw58gScbRN8Xt5jT6Z3bH4uY32TPdemfOrOFO+0OepsPOJi7tXCT0WYwkKO9PlDV+zKdth7TbNK96OIDGZSNBq2EUFobc1CQrq+rLgCBEDg4RKAcNnnuk05d+kwHAeuClTj4Kzj9Jyqza9+XEKBLZVP6pz2okacBBxTzD5TV9apOeUWIkNHVmSXk7dv7otHhLhRlGVoHXFJlSF1LikwSnuqQpFtjm/D3OT1LP5U10410qGFrR/lku0wIkKU6C26ADvUn54XXUL2mFc3gbq7TlllqbAPAiDwsAhAuOxzfVoh4QkMbXOziEvwoR9znPaNm52JEjDv6MSOP/BhpRxpGXGpdhVJ4RIoW8w+k33YAXO3VSTi4ptOwknHHK4QgI9DuKgeo3Oa9js66mJFhman6vOF081WIBXtMMqR6yYjG33jth29p1JhOAACIAACmgCEyz43BH64i9k1pbnCYTiRB3VFSlDUiIbNks4mcgaQEjGxCEw6HxvR8MfSKP+oBnmqt+vQGJfrCBd7T1PhIoRV1HmW5Xs0woXMAG1VNzLqogTN0x8D401EO2zAkYWLFZ/Re8qWjj0QAAEQkAQgXCSNfdu/C+FiGFSmBwdFRunYg5EdOVtFzFTaLH+niZo+G5xpUiOsYl0pNlIgx1GkKlQIl4rw4/vK8j0e4aJ07xmN1RexM565paJT/qBcZtROuHA7scJViiNOElsQAAEQSBCAcEnAufNTdyhcbNnXCzq1a3L4oqB07OyQ7H28oyM4IxqNfxDrkCTWcVH32ehJoBspJlyoHONSnebNxqjthlb/+Eh/XImuoiw0s0VdW5bvUQkXEqJOj2lRbF94g3KZaRPhwnUj2o8d48LiiNPzt1/pH7N/ifWD/PP4GwRA4LERgHDZ5xq3Dlw88NleXr5dRUIqEYPS4QYFRSzd5QeaiqnCnBVZUSAGV+qTNfloG5+F11spE6/uWftqhIvzti6FSGi2jslmc05Hk4961lTZlZVRcPaVHPPTtksjVYbUOSnMnPIp+0ve3OVShRc/YrtnKukG7rHC4gkNj3+h4VN/SjvfI4RLZeCuuYajYU6+LGZia7wU924Wv9Ik2CY5f2xBAAQeGwEIl32ucX7gZ8qxvqUzPdWUF0d7ReOfnhfrZzgOQRVIOIWQw7VOyZvRoyI8oTEn9g3cF1CpfFhIxKIZCfAx+/QtnK4ae+ONZ5FCIzAup1id9qVYN0RO1VWMJ3TKq7WqJfJHr8oF6GJOOVaMVBlS5+SgYb98QrjYsUHrT3Q0+c1bSDBslBUuNsK0ovOjn+kkuNiciLrYLqNQukK4BNd/4TEz1ciKFI5qJVx3NeRLWs5/oeHgTXWdn5AZOAYCIPBoCEC47HVV80OfZ/mYrR4b8l9a5t5S7f40Xz3A0l8F1U3T6Vbhrile5l+z4ZVnu9QbnTrL7DuOp+K0pOPz7Fd22X9Vh6VX7zXnHfuUPY44CTjD2MqtOr1AJEYuaGdtUvaptD9VV4dtJGASjOXgVyVI/dWLk+WToo0ZthCGVjDxvZH1WsxvwtZvRRjLH40QLoqfGMtExKsuB7jrJHhlZbbH21bGQPEqx+q6AxpMfnfao7QK+yAAAg+XAITL3tetXAJdzu5hh6HGixxTnn+kxXpVflvHccJmuX7bReE5CJ61pLuK/qO/LVR8K8hc5wgZBazssigFSHGt0zUlP+zn2ePeZxxojX1lxMCz3+8qU98DOh6LzwTUTOtWK7zm4vrOgMan6rtGppzq7+Oc8pN5vaNMleGfM7N2jWe/4d+ofHLWV08uld+kIcul/X3BGLq/iKilu6W4HapF+o5poT6VoAZem/pW34jKo9PpVZ5KGDf9lpUvdPwIYKgMOAYCIPDQCEC4PLQa3afyqDEuk58Dq6lKI81bebe64Jm8Cvt3QUAJl9igXLZHCpeclnx451uV78tyQbud54cMQAAE9oUAhMu+1MSDs0ONH3klxpOkCviF8sPXgTVCUvfg3M4JqK6l6KBczv2OhIvuUnvesH2xrdiCAAg8BAIQLg+hFveuDDwWI/YNIGlw8XG/fuj7SPIy7N8yAVWHP9JTXqI/mvsdCBfdXfaSDivfsYoaiRMgAAIPiACEywOqzP0pihgDo8eHnJRfd7ZGFmMb9Fia4EwmeyF27oKAmtF22GRGj6jrRgOXb1IYNdPoN8rzUHu6Sbq4FwRA4D4RgHC5T7V1j2y1q+MmB+XKad73qHAPzlSeFn5Ag/EHWqy/0fnRGzo6r3wjvFLyjTOLq0+j2UXxEcXKlTgAAiAAAtshAOGyHY5IJUhgRYvZCR3blXd5Nk0xEyr+8cZgYji4MwJy5poSLznN9ZpBqQzLDyfyDCK79Wd5pZLBORAAARBoSQDCpSUwXA4CIAACIAACIHB3BCBc7o49cgYBEAABEAABEGhJAMKlJTBcDgIgAAIgAAIgcHcEIFzujj1yBgEQAAEQAAEQaEkAwqUlMFwOAiAAAiAAAiBwdwQgXO6OPXIGARAAARAAARBoSQDCpSUwXA4CIAACIAACIHB3BCBc7o49cgYBEAABEAABEGhJAMKlJTBcDgIgAAIgAAIgcHcEIFzujj1yBgEQAAEQAAEQaEkAwqUlMFwuCazofHpInaxDvdEpLTfy3H3f5w/6vaNhr0PZIKdlmyKtP9F0cEBZdl+/3/OQ67ZNReJaEACBfSMA4bJvNXKv7Hmozu2KlvkLst/eUR+KhHC5Vy0TxoIACDxcAhAuD7duUbIbE/hKs+GTQsC0FS43zhsJgAAIgAAIhAhAuISo4BgIaAJrmo97+ydcNp/p/cknukItgQAIgMAjJADh8ggrHUVuSmAfhcuG1vMJPR3PIVyaViOuAwEQeFAEIFweVHWiMNslsH/CZbM8pVGvQ10Il+1WNVIDARC4NwQgXO5NVcHQ2yewT8JlQ+tFXsxwyjIIl9tvDMgRBEBgTwhAuOxJRUgzruZj6qqZLPZfj8bztb2kcr47prkd8LCixeyE8ryYxmvfzDdLmh8NqafT7FBv+AvNl5c2zXJH3T+1DjLrDWk6W9B6fUZvpn+I7olIPmVCZk853I90PB5Qx5anT8Pp+3D+6wXN8pzyqbK1LPdmeUZHw75h0qfh0Vl8+rUq64mZxmzy7AzGdKzKUbGvOLBZzulE52m490aULy6uN8YlUgadU+RcunwrWuQjU3eyXRT7to4jZSsPb6luVzMadqp2lO2Vz3WoPz0nZ5Z8i7rh6NL9nVJeksceCIDA9ghAuGyP5ZZTKsYyFEKjdOBlJt9oPn5aOHIrXMQsGOOwtVOza4qwQym2ncOcLhyvckkX+UvqaKe9MlmtaHE6oUFHvuVH8imNM3uXtJy9pp6zzsslLc/e6vRcR9ej8enfPYeoyr2i9flR4PoDOsw/u05R5arL+kwIGxmpCK03szHpH9Bg/IEWawVE3fOBxocDGjxXa7G0mA5dceqi7oLn2pSvjAA1FytcKVus22VOh4MjOtesOH2zXZ/RWK17k2VUaV8t6wbCxWOLP0EABDQBCJd9bgjLnAZagAjnZ+0Va41Y4cInv1A+6Grn0R2+pZ+Hr4uoiT7Na68o8fKMpos/+SYi7Vi7NMi/lMf0XuH0DirjKkQ+lXNEm4ucDtWbeX9Ki5BAUmXrTWjuO0Bb7u9o+O4NDUdTmi2MkJIizE9385nywyfUG59VIiubxZT6muUTGs6+2vIVNnbC97D9bYQLp2zLEKg7e65l+egGwmWbdbv8QFPBkItMmwuajUxUrPOS8gsR0btG3dh0sQMCIAACggCEi4Cxd7vWwQWcH6WES+ngOqE3Y/vm76bLzr0znBHHWyyT1Yx+nPgzWcp8qhGAP2kxfVa8eYfSS5Xtak7jrhJWBzSYfvJEyIZWs1HR7eQINj7+gvKl7Tez5pNNU0ZPOHLkCTh7F5+X99iT6R2bn8tY32TPtSmfujPFO23Odus2lJeJ6Ghx+JTG82/iouvUjbgduyAAAiAgCEC4CBh7t5ty7g2FS1VQEJVO3HOqNr/UGBhJKeVIU+ekDYEIj3Xsnn0mazvGxxEuQmRo5+l2izndUua+eESIy1iWofXKuakypM5pNGaMk1M+ZVNpT7Be2ezQdqt1W83AslTdgpWIV/u6qeaAIyAAAiBQEIBw2eeWYJ1NyIE3i7gEHVzMcepwvhnToZ2/EjDv6GS+rI4l0dxSjrSMuFS7iqRwCZQtZp+pq7Bw4W6rSMSlUs8cBUhFU8ry3XvhstW69WCmxrXoS9vWjZc+/gQBEAABQQDCRcDYu93bFi4KwGZJZxM5A0hFLmIRmNKxhwRS+RZe7YrhrovgGJfrCBd7T1PhIoRVdDn/snz3XrhsuW7L34oYJO6Pa+GLWtcN34gtCIAACFQJQLhUmezPkbsQLqb0lenBKgJTGUhbOvaQcCESM4jETKXN8neaqC8ndw5pel4ZTRPvyjK2BSMum3Oa9tVsFnfwbbwyhXCpdMnwXWX5HoRw2WrdqsRS41qYoRLDbetG3ItdEAABEPAIQLh4QPbqzzsULpbDekGndg0WXxSUjj0sXDiCM6LR+AexDkliHReVsX1DD3QjRceAlOMoKtNwbWHUzoZW//hIf1yJrqLMH0zKN5Tle0jChUtHN6zbMqIWGtdicyGitnUj78U+CIAACLgEIFxcHvv1l3XgvmBQ/ldMPa1EDEqHGxQUsXRj01yt4/EXFKvJR9v4LLzeSoq0ta9GuHRGNFvxPGspREKzdUyGm3M6mnzUs6ZKx5tRcPaVHBcS7U6KFCRVhtQ5Kcyc8ql8St7BmV8RU/ThbdetmJaeFooq9/Z1kyoKzoEACDxuAhAu+1z/NsSuHOtbOtMr3fLiaK9o/NPzYnG0ioMr33CDkQI7Hdqb0aMiPJXuIAWIu1V8AZXKh51VLJqRAB+zT9/C6aqxN954Fik0AuNyitVpX4qpumJ8hlowbTChU7tezDnlo1flAnT+mjEJ8/WpVBlS5xwn75VPCBfbbbf+REeT37yFBAPGbbVuBbfYuBZlwtX/T/l7syZQ67oJlAGHQAAEQICIIFz2uhnIMQRieq8eG/JfWuYvCuHC03/9ab7qeMWxuGk6b8vcNcXL/Gs2vPJsl3qjU2eZfRmxqObDYkfYzXY6W3/5/oR9yh7HAVZXzy1XWw3lG4jEiMiBM2U6U2l/orNxz2XcSMCkypA6V1c+Kdq4fA2F4dbqlldDVvkn8taDvF/QoVjMsF3d8IrGKp8DGkx+d9reXv9sYRwIgMBOCUC47BTvNhKX36mRs3t4OrQaL3JMef6RFutV+W0dRxyY5fptFwU7Pd6aLhndnfAf/W2h4ltB5rwjZFSZyi4L19nLzwKoy84pt2tkBKYAACAASURBVN8X4rxCWzNGosY+OyjXK1vmd5Wp7wEdj8VnAmqmdavv5+Ti+s6Axqfqu0amnOrv45zyk3m980yV4Z8zs7Cez6Dg36h8ctZXb0hH0anqXtvbVt3aaJFfhtDfXkRPN52mdSMFkkrbj/Z55cOfIAACj4YAhMujqeo7KKga4zL5mWbBjzmyPeZbSF05XoXPYQsCioAS6S+rH2wEHBAAgUdJAMLlUVb7bRRajYN4JcaTpPL8QvnhazHQNnUtzj06Arp78HnDtvTo6KDAIPDoCEC4PLoqv40C81iM6sJz1dyLr2D3Q98zql6MI4+NgO4ae0mHlW9WPTYQKC8IgAATgHBhEthukYAYA6PHh5yUX3e2uahBvx9Jj6UJzmSyF2LnURK4pOX8N8rzUNt5lEBQaBAAAUMAwgVNYScE7Oq4/kBa7+9ymvdOzECiIAACIAACD4wAhMsDq9D9Ks6KFrMTOrYr7/LMk2ImVPzjjftVClgDAiAAAiCwPwQgXPanLmAJCIAACIAACIBADQEIlxpAOA0CIAACIAACILA/BCBc9qcuYAkIgAAIgAAIgEANAQiXGkA4DQIgAAIgAAIgsD8EIFz2py5gCQiAAAiAAAiAQA0BCJcaQDgNAiAAAiAAAiCwPwQgXPanLmAJCIAACIAACIBADQEIlxpAOA0CIAACIAACILA/BCBc9qcuYAkIgAAIgAAIgEANAQiXGkA4nSKwovPpIXWyDvVGp7TcpK69b+f4WznvaNjrUDbIabmTIphvNuXHNB32KeuOaX61k4yQ6F0QuJrTuMsrRsttj8bz9V1YhDxBIEngaj6mrvdplkz9vUfPJgiXZBXiZJrAQxUuV7TMX5D+sfIPeCfChb+iLRzaHj0c0nWPs40IWOHygvKlr0gD7Uy1t86IZqu2bwGBtqTbbijfgOWbz5QfPqH+9Jzqc47Yzb8VvfWFmfjwqnOdavsNbayYHUmzc0jT81Xl6vJAyv6GtmyD17br+X9/pUGFrXi2pM6lnm/LvEh3j55NEC5la8YeCHgEvtJs+KQQMKkftndX+z/Fg3SPHg7ty4E7KgSSwoWvvqTl2VsadNjJdBoKCL6fiDbnNO13rNjuDI7ofF0vQTiFzWJKfeXY2jjTzZLm+VjYrezvUG98RtFYknb4B4Wd6svxp4v4tWxc7baIWjrfROu9ptnysubODa3Pj7T9t8KLbqmeNxc0G/VNW+jSIP8S57A+p1xFelPPNwiXOD+cAYH9IyDe6FI/7C0YbsOzEC5boLlHSTQSLsreL5QPulZ4tBIQtKH1fEI9+0Zd46wqeIRAz57QcPa1ckXqwGZ5SiPVnarzrxEu6080HRxQ1khYpHINnLOsCwHYOczpola7Ke5P0s69ktVNeN1OPdvnSdagLaxmNDxIdFFDuFRaAA6AwB4TgHDZ48q5H6ZZZ1rXBaEc2gH1Bs+NADmgw/xzg24bFW1R3Tw9ej74njpaPDRwVoLe5iKnQxvtySjrT2lR6/BFAsoEJ42I7RwJ2IVoUeZo1l3q9UyUtC76o4vQXri4ZW3L63bquZVwoa80+/Hn+Ng6CBe3seMvENhvAhAu+10/98C6VsLlCQ2Ofyu7fHoTmtd295hoS29C/5z9ZAZVthEuf9Ji+oyy3ksaqkiIFj7PaLr4syXcS1rOXpdRn85Lyi9kV80lXeQvqVM7/qRltvJyzbpH49nvRVRHlyUioux9bYXLTXmZ/HZcz+2Ei4UR3oFwCXPBURDYTwIQLvtZL/fIqrbCJf9Mq9nIRE6adNuobovv9JiYSzsbpIVwUd0EHeXc/4++2Xxrunui+L/RfPzUdneVXTXcldWn0eyiWRQpmkfiBAuX+dqLAD2l8fxb5MaWwuXGvDi/3dYzhEukunF4dwTKRseD9dwR+pXzzriIFS1mJ5TnxTTe7nhOei6DGkh3NDRvRB3qDX+heXDwmrp/WkwBVm8svSFNZwtar8/ozfSPIi1d9Eg+FSyBgXNZn4bT9+H81wua5TnlU2VrWe7N8oyO1CAy/RbVp+HRWXz6tSrriZnGrK/PqDMY07EqR8W+4sBmOacTnadh3htRvrig+bhX5HmtMS6K0a80tm+yhufJvGK7rVNbl349KHvCMyUqtqsyq4GPxx9p4byxh6Zeq2nfv5j6bjGtXdWT5aXa05Rmi2+0nh/RNDjNV+XzvpjybeokC7YDIRb5OstE1VX1vG3j+nS1/Thtp9JN0bJ9qm4Rv61kBzQY/0qzUP20Fi5f3IG2Nd02elCtGVBr21CTcQ262ZsoCEd25ADfNoN0i59Q8f/1GY3teJci2nGlx8A8ocH0U/T3J5O49r4QLuSP+6nUO+fCQiIxgJUvpW3wEvlJ3luu52Zt4YqW79/Hu4i43NGIi4iyRflyItvdYlbRdnluMTV+S1GOtHTgZQbi7cY+2OWgscIB64c6D4hjR2C25RsRp8o/TOkkV7Q4neiR96WDiOTDydgtN2zpEP2R9UKcnf6dhrKvXZd7ZUf+O9OTs0gIWJf1mRA2yjHlCcfMMwuU8/lgHL265wONDwc0eG7C522Fi2HeGbylMxaIoh589vZBo+uSp5kzG7OthN/ZdiXMynw2y99pYsRSmY+YucTtoPua8g8ivJ9lVF5vK7G6Y6aC9oZ5KYzWCzodD6gTaqt2bMOQjubL4o3bEdKhN/FQ+xamCAdp2yU/YLl8WY9+yo/FwFEl6GQXhuHcGdDkzNhFgr1zrcrb8O6LctCKFvnIvBAEynEd4cIOUpcjFXUpoy1qSIptQ02Fi3acT8RYGtMNUpuvqIfArjMGpPM9DZ4/Sc80CqRxrUOOcFEpmOeZaQ/hmUNCSNRluhVeMj9p33bruVlbqBnbwjz4d2X9DJ/g57t6IWsyi4vvu/kWwuXmDHeXAjeYkDMg4YgqDUr9OIoZCt3hW/p5+LqImmhLxYM58/qydRg0FGYufmAHHL2xJRb5VM6JAXuVtwnxg+W3PZsmEdlyf0fDd29oOFJv8ybaIJx/ZRAhO9TAdEw73dObNVE8ZMOhcecB3Ea48JTPStnkWhvug8o+aLo/0Luff6SRjShJoedPk2UB6deZzMcfFCrajRIqLafNKudddGX46fIg0e+9hdVYgITC9aIdZP55YWelfavGkmh7tv0ooRJb04Pz9vMlIv07KMRiZzgjjnMV7SFwPQmH70cqriVcVGCpjFzExGQRbSmFmG1DjYSLqUffXlH2yu9L/kaT+8zWCO5g/SUTuN7JinDRo4bF1GD5AsVZSCHBx0LbbfHy8ttRPde3BSO4m9QN/56aXBtCt4NjEC47gLq1JLnBtBYuZTg96Jjsw8mN5LBzlw9rW5bVjH6cmG4ne7DMx7712nPlwzyYXqps9mF/EAgvs+P0V3Lk4wGHqmyyaWZUrlnAjt8TcLYMfF7eY09GdtgOX2SYyzn64L3N2wdN0NHGnDQ7iIAzTfAt87rOQmdcr67wKkqnyj6hiegq4jYVdYLRcPkNhIut65CNph74N1AR1eo8v0nKqJ5pCxEBa5n6osHaEmmXxpxCiMlpucxZOf9A/ZIShN87kYyoDTYPsWNEfnXBORaaKt/Y70KkE90Vv51YdDR67zVPaNbuM02nJF92KrZ4QiKW9dZ4+fntpp7LtmDEo41Cen83ESP8LGlybYzflo9DuGwZ6FaT4wZzA+FSFRTSiXs/cptfagyMLGFKuKTOSRv8aIE859lnsrY/SueHJB+U3o/T/9Ga+2xEJei8VGZlGUqxI8sf2mc7wraH7lDHwmXiq0s7gvXJl8mtrcuqHem8ZCKhfSEo1BgVGxkKXcssMorbLR/c0lGKfJx65nxiYq6+/ZRRo5RdnI/ZstDx21Lgb6es1xYu8ciPski33W4ZbVHHbL364skrir5fLTjnR1vMdVZsNppOHEicu9S631HvO7O+iyfUQ3fd+FhMuDAv2w0thaAvJMJWFNGtsNBvxyuQn2hb/kvedeu5vi0g4hKuaRy9OYGE86FkV1GNo7MPU8+pcReHfRgrAfOOTnhcQqVEqXyEQwoJg5gNKo/UOfmAdhwaO7K6N1suBEdGUtGUsnyNhUuN7Zy7v7UPGqdMfFVph+MU+bTY6oGjZmB2MSbIq+MoP5FIza4VfLadRAZbi2hKym5bdsfh7lK4NOdpUfBvMRJxsdf5O7Y91LXLgEOTXVBO9KP4bflOLszRN0j9XY3WOFfJ50BE3DjX+3/o7g81dub/aCUWxot1efm3X/tvzbra3ov05JhBOdYpxN23YJu8QvmJZ+WW6rlZW7jpGBef0+39jYjL7bFunxM/LG8r4qIs3CzpbKIGWcqoRSwCk3YApYOTb9IFBvuWUhkHck3h0thBcDWIh0XUGZXl22/hImbs8GyixbH5bkn1QW4fakGRxHzSWzkAuBw07UVgbJ3URDZsO5fRt/0SLpZZtK1EeFkG1xEuYpyYGo/E4230G3r1N2VtdARgwC7xhl/Wnfy9y/1Ed1sg6WIxPDkYV3Y9ya630M03PJYULipt7lo15dPPns/1K+dulVdIuGy/npu1hT9p8cuvN5hVdMP6usHtEC43gLfzW+0Dvep8dhJxEQWqTvlUI8f9BbFKxx5+oxYDS/X04mKYo3V6wfEc1xQu9u2+6YNWCJeoAy/L1164RMa4CMZy1z5ograUdlQ487dG/G6bRNtJ5yWtqtsXgskKXTHQ2Tpt4XRDSVpbZd3djnCJjr3x7LRCu20EwjK4nnApoiO8NooSK9/0gnFWxAg7bb0mhUs4WiOSKXbFoNGmjMjMyOr6S+3LtHbZZVQrXEKDdd/S+LkcW+ST2DavsHDZdj03awt+WSN/8+8z+GyK3LPjwxAuOwZ8o+S5wdxmxMU32E5zVW8p0rGoCxMOldPREZwRjcY/lKtqBtfv4BuuKVzUstXmg4jpkPSGVv/4SH9cia6i4OBHt3yNhYuY7VIVeqKMqhvg5INdWt0+aIIPhwhnG9IPvMkm2k46L2lj030zfZzXq7HOvayT5Ld32FZ7n8p3l8JFpB2t+6Lsm8UHOlGryNq37gBrB9NX+sfsX+V6RzcWLkRWNKkxJz/8QIOOHKNRZm7rNSVctIhQM79iC7JxekLYO90XfN7f8gq+oWmxbjdNcMKAn9x1/m4iXFS6zmBd9VyTkT4v463zigmX7dZzo7bgFFXV0Tsah75Txb/P4LPJSeTW/oBwuTXU18jIPvR8weC9OVQaVMTRsQmxdJcfaBpquFYU+FGEmnz0DJpnYp0INqBma+0LRZrEIETH0UkhEpqNZPLcnNPR5KOe4lp2ZUWmBVthkBoH45dFhqMTdqzndJQv7Cqi9kFTqUuVfpizdWgOB2MPP2wCotfmFbrPL07l7ytanvyNZqvAx2ysc+duDFkngTas0+ZrRKTG5JmyU37YrxKFsu0nlqcXmo9OCf9G86P3RlxKERabYq2cz680kb8ha8t1Iy4Khsg7sdaO5RV1xEXbrEREKnVcHCh/H9W6cW/h9YTCgqq4VnYZ1aXnpt74L806/Mzw05DtJy5cdsErLly2V8/iGRltCx4RJdD6P4Z/1/wsCT6bvHRu6U8Il1sCfa1sbPeHXGCMF0d7ReOfnherulYckHjQhfrkrYPx3jRUA610BynL+e3LdwSpfNghpR5mESox+/TlnK56U/KcgRQa6u3UWx24WEH1pXjblA9TxXhCp3a9mHPKR6/KBehCA4wj5ss1ODK9qiovbFfcoO0Y/UV8yyVRJn1LKVxk5McKl9AbMT9sdJTsP7RevKfp7EIpXrGkvMcvVh7nuIpWvHSm4drT3F5le5R1Emxbpg0FuhDK8h3QYPK7WW24WBDx8MVf6KfnxVpFlW6TZPthaxN1ry7RC+S9ppH40GHpyFXb88bzqCnUagXiwRv3+0JbES4yYhH/PdUKFx09+K7F15/F7zsamWLRUheJUvq7XJtG/y62vZJuC+GiFxO0A4e95yA3kZ3wSgmXLdWzDlqPW3y3qvgtVH5HzIGfJRAuTATbNAH59q4eluafHhvyX1rmL8pj6pxpWM4DtuIQ3DSdbhVuoLzMvzaOV57tUm906ixVn86HxY6wm+13tlUHoD/GZq5x7FP2SEdYWZNB+ZtTd6VUJ69ABKQSNmZ71YP4E53xkv+cTkMBk7bDW2G1TZlkfbJQ0CKNV7FVjv0NDQ/5K8NFeSxHp7y+EE23xuIsd7MoYSgWBrQryHplUzeJPF1xaFbbjY11crhwvXB0TA2qLIQL/y6KyItcYLFmbA2vqcN162xDi5Xx+i6lLZy33obK0Ui4sPPnsgWiWcwi1v68svjdMXZcmRLSVgTW1LeoN12+nlwxWD0XPtKxXi1Z8QjUu5+8I1zUPXK1av/itn9z3YTqLZYWPwurwmX7vJQNu69nXVKnLaSjW2osY67rMPEsYL9QES7it+asPh3jvb3jiLhsj+WOUpJLissoAjsQNRX1mPJcfZdmVX5bx3kIm1kd9iHqP3hNeFV3Fam384/mW0HmOkfIqGKKCEAoHyZhB476+fl/mx9XjX3lG6V3v/+DUt/ROR7rzxQUjkVxS0zrVm/Xubhezcw5Vd81MuXUM3VyygPfGOKiBrfO93yUzYFv2vBDweNYiNB6zs53eGT69uFVOocov0B3UrA8+iB3FX2jxSwX3x7yhYyXgv5+1N/c7zbxDCjne0refU4bkiJXvbl2i29pqW9bqe9QRdtPalaT900ovZpw6rtWvsNW9RqZDq6KYm0KRbf4N+y1Z90W/OtVpOwnGsluKCf9UBrq2P/QX//6P+4Ljk6/6qxL8vF2p39PgynlvqDn9uv/FnWiNek17c4oDRR7ibSDtohb9a6KNjyjQc7fKorVyU14/Ur/679kMi8/aqwjotep5xeU/++vZiZhrC0kjssoqY+In1E+T/uMMemm0vDTvOHfEC43BIjbEwRUw578TDP+Vk/wUvMtpG54cafgLTgIAveFQFK43JdCPHA71/+mOXcRP/CiXqt4MeHiJKZeJAY0VQPZb+E/CJdbgPw4s1BvMq/EeJIUhS+UH74ODwxL3YZzILDvBCBc9r2GYF8dgQbCRQ8b6PvLZdQlfP3zEC7XZ4c7owR4ACjPLoleWPT7zifU58W1UpfiHAjcNwIQLvetxmCvT6BGuOjxQIevaHrOnyP1E9j+3xAu22eKFHlsiOrH1eMYTsqvO1s6xViBfDqkXnC2ib0QOyBwfwlAuNzfuoPlBYGYcNHj1nIzvjIwoHyH/CBcdgj3MSddjspPDAjTAyHf0llyDMxjpoiy33sCEC73vgoffQFiwuUOwUC43CH8h5+1mrFxIqZMsogpZkLFP9748MmghI+EgBUu3PZ522yhtMdBKTaTh1mltuC47TYSnX3ozyradsYt0oNwaQELl4IACIAACIAACNwtAQiXu+WP3EEABEAABEAABFoQgHBpAQuXggAIgAAIgAAI3C0BCJe75Y/cQQAEQAAEQAAEWhCAcGkBC5eCAAiAAAiAAAjcLQEIl7vlj9xBAARAAARAAARaEIBwaQELl4IACIAACIAACNwtAQiXu+WP3EEABEAABEAABFoQgHBpAQuXggAIgAAIgAAI3C0BCJe75X/Pc1/R+fSQOlmHeqNTWt7u5yp2zO6SlvPfKM/f0bDXoWyQ03InOZpvNuXHNB32Kduj1SmvVVz+fon6BlXWpUH+5VrJ7PQmrGa7U7xI/IYE0D5rAUK41CLCBXECD1W4BJYg34lw4a9oiyXN77Vw+UL5oEuZ+rim/rfvwuUF5csrr3kH6l5/LHREs1VbZR6oX80llK9nhvpz85nywyfUn55Tfc4Ru21dqDrxl8df03zcE/XF9aa2DW0MmE3UxBaZV/EJkDz/jeY3+m7ZJV3kL6nTn9KiHhhRVCBI2xL7TZ8JreoxBJR/V379ha59HMcgXB5HPaOU1yLwlWbDJ8WDvelD6lr5iAf9vRYupvCrGQ076oF/H4ULV+AlLc/e0kCXQ5Wl01BA8P1KeJzTtN+xwqAzOKLzdROPWqSxWUyp31Y0qYhXPhZ2F7b3xme0FqY5u9qxHhR2qq+5ny7i1zo31v2xofX5UWlLZ0CTs6UrwnSE7m80Hpj8VfR2+Mv1BIzl/YSGs691xhnhovLLaeHUi/g9VgScipB+KOxt+Ey4Vj061kO4ODiICMLFJ4K/QcASEG+kDR9S9taWO/bDZg9BuNg32S0Kl81nen/yifz4SEvMxeXWvrqoAjsM89bdaRN12dB6PqGejXi0ZSFEc9bQEQsYm+UpjVQXp86/Q0nhsv5EUyUceq9pdqOIhzDA7gqGyba9okU+Knm1tsWNbnWGM1pZGyI7qh18H4rOpISLSWt9RuPDowaRnZvVY5EbM0TEhWsSwoVJYAsCFQIQLhUkTQ5YYdDWWccSL0TA0/H8DoTLAfUGz41DPaDD/LMbMYiarLp5evR88D11tHhox2JzkdOhjfZklDXt/hD2uGlEbN9c0GzU35FoUcaw080ajN/yxF5vQnMnEiIK5+/KqJHm/Yymiz/9q9y/r/6go19C3XANhAutaf5mSvMaJe3WwfXqsWQI4cIVCOHCJLAFgQoBCJcKkiYHtixcOHrQvRPh8oQGx7+VXT6NnKlxwL0J/XP2E3VbC5c/aTF9RlnvJQ1tF0oDR1ypm0tazl6XUYzOS8ovLsVVZkxI55Cm57XxCXFfm902wkWl+43m46fNIkXCjKI7pk8/DJ8bodiga2/9b5ovQuVuIlw2tP73v2smJGyrHpkhhAtXOYQLk8AWBCoEIFwqSJoc2JpwUeMJ8mJWV5bRnQmX/DOtZiPjEJt026juge/0mJjL+bi9cNFjhFSE5P/om823prsnWi9SCGTUOczpQg+z4ehGn0azi2ZRpGgeqRPsdJtEXEw6doxURlmj7rmiO0aX7RuPr8ooayQyQ7Y3ES6h+7xjW6tHZgjhwoQhXJjEHm3teAf9pqb6190GWznv9B2vaDE7sdN47cNeDYI7UlNUzWC96AA4df/UOousN6TpbEHr9Rm9mf4hQvWRfCoci+m+x+OBefCr/NUsgvfhAXjrBc3ynHI9nbYs92Z5RkdqurC2v0/Do7P4244e8GemMRuGncGYjlU5KvYVBzbLOZ3oPM14ht6I8sVFOeviWmNcFKNfxcBD9TAd0vRkXrHd1qmtS78elD2ht0Oiiu2qzGqQ5fFHb9BhaOq1mvb9i6nvttPa1b3vi2nctl3ltPh2RuOu4hjqHvHvKXhX68cb82DqkWcs2Xatqi9Q31l2QIPxrzQLMbPCqskYlyfFlG478LM+3K/f/o3DtfUaZBFqjCYKwk5X5tvIiQfSVOMx7HiXosvoSo+BeUKD6afobyKQ0jUOsdNtIVyo3biQojvmKY3n34jIRDl0e2kiMkNF2oZw2WY9MsPyechWczRSPVN3K0A5x/3YQrjsRz0ErOA3IvVgrzZYJ6RqnZ38wRcOQT/gefCd9/Av3744e/6xSSe5osXpRM8MKJ1FJB9Oxm45VC0doj9bo7BTl/H072Y2ijg2X7kzE2wZIn32uqzPhLCRb+3SDjaSZz4oR/fBOHp1zwcaHw5o8NzMdmgrXAzzzuAtnfGAR1EPPnvr4HRd8jRz5mC2lVA/256RzGez/J0mpouhzEc+jE163deUfxBdCZl8I2c+sa2x0ZmFUrSVw8GAngdnFXG5Dmgw+d2IN9keQnVaRr3K9idsYqZyxspmSWcTI5QrzEhMg20hXMj8NmodovptFNEWFdiw9dpUuGih8kSMpdmGIyZyxlp0vqfB8yfpAbsC8c122em2ES5uWw3WuzWq4FO2cyI7i0e15yaDdG1avCPzr2sjfI+33Wo9MsOqH4Bw8bjjzz0gsMxpoB+U1QbrrJVghQvbzA09o+7wLf08fF1ETfRpdh7KeXn95jq0GX5LVusjHFTGGIh8KufEw7IysFA4AX6zZNPV1pb7Oxq+e0PD0bR8c2ZHpbj46Zr1EkIzKMqHmfsWVjzQw2F452HfRrjwQMFK2eTMB9cO6+C6P9C7n3+kkY0oScfu99uzgPTrTObjP3jlQ1kJnnZTdItq4vrjt1xZeXxOtS/PLtsF4NvE5cioutBfSriIcvr1Y/PybFCmXifiou4TkQvpKGXpi2hLOZbE1qvPQt5k9015/MiKLUugzdt763ZkvbQREXXp1p0vnxHNF1cU9ap+537dyiw1G/e3RE7ExnvGyXuj+/I34rfV6E3ixLbrkRmG/IDI9hHtIuKyz5VtHXiowYofV0W4lA/7oGOyD0I3XXbuwbeU1Yx+nPizOsp8qm9F5ZtiML1U2axjOQiEssVDzSk3H488aGya8kHIDjP2cOPz8p66BsN2+CLD3MezOLxIgHVwwYGS/ODyx3mwMwoIiATfMq8203tFubn9+MKRL+HzvrOOCrpmbbnaxlgch4RnjNkNhIvTDRFgrgeWfu9EMixrnwWzklsjvKsLzslxKrG2KhOK7Yv2nIWiW7H7bnK8rIfmwkVGqlK/PdP+K+1QRqsjv8NkkUR7rKzjkryxOLn1emSG7vO6gSUP9hIIl32u2oTzSUdcUoJCPri9H4LNr+kiUKl8UuekDak3Ys8+U1fWGTjCRT6UTVeIjlYF9s19NqJSefBxoyjLkHzr48v1lu0I2+5cKv4Il4kvKO0IOW++ytnauqzakc7LSSXwB4ulhEOwIjFQt4EUb9SWg+mpg/yw98WebHsRkWvTVGmYMS58zIqyajeEbk/dMtqibrGsGwiXIloTFpP8UqEWwgtFFNm8+NZ0K3a/o953Zn0XTzzH773JmbIemgsXFv/mtxuLuOjumO/Ci83JsUGVyGddeW4mXLZfj8yw+luuK8lDPQ/hss81m3A+N3rYW8fi/RD4jdg6fCVg3tHJ3Fvt0jJLOdQy4lLp0lH3x2yoOyedgSNc+Mdd54zYePFwjD0Y1VoNvCR69BpOz2xTsgK8ZwAADYxJREFU5fIulX9aB+eUia8o7agTLnqgLn9fSdejV8dRfpxX3ZaFWUKUWAaJa3Q25ntQclB0pfzNy66T1AN1zXefTDuuMLP21bWVgHBxoi4y+mHGWnhjKmy91goXFVVxozVOTcjfpt+V5FwY+UN3c6mxM/9HK7EwXqzLK5LKNQ7z77JN95QUDgHhqa0op5yH13phga3Ej9+VVFcMmX9dG/HT2kU9MsPqb9nP/bH8DeGyzzV928JFsZADGx0BE1qGO+1UbETDH0ujsuHlzENvQ9axhH+o1hlIJ2fvafqgEcIqKkrK8jWOuFg7wrbHmluwTPbi0o6KE9bXiJk6PJtocRwdH5XOy2Ya3rFvsglRYhlErhGzgIrZRP+iRf6imDEm61RbUFf2wsxyZhXPJvpkv5tUYWbtq2srIeHC3VNFNMB2g+pIjBQyhV2WdZ1wEZEcnjkV37Z0xKbroozUyK6nXXcZsdNtI1xYHKdEh7zGRGbs86r6t62ncKv2jt5AuOykHplhu2eKV6gH9SeEyz5X510IF8OjdATiIVARGXVORQws1dOLi+m8dtZLcDxHTTQmFjGwDrXpQ10Il4qz5EZRlq+9cEl0pXDyYmsdXNCW0o6KE16fU66niXtTxBNtJ52XMCq0aznH3oRl/fnCRczw6g3pyEbyhKOolD9Rdm0fT5v2uzf5YR+w84bCxZnRp0X5N71gXMg5WtZJ4RKO1lTwi8HBwShm5QZ1oBiM37Xrt5iLZFo77TIq66FxV5F0/pHoUqo7psQgBVpVVJbX+XuiPbYa47KremSGEC5cUxAuTGIftwnns5OuohCD9YJO7RosviiocyocwRnRaPxDuYJnah0XZYN1LOEfqnUGjpMr38DS4e8Nrf7xkf64El1FWWigpTKkLF9j4SLGVqQXwPqTFicf7LdOwmXiCintcISL7T4IvDUn2k46L84zti05R8tn688VLjYCV3GUwlE4derWgVN2bV7ZHVCtc37Y70K4iIihGnPyww806ITbkGWdEi5aRHxv1iGJcVfHhdgORDGrd3J3SugbRHIA63Vnl1VzrB4p66GZcJFiI9CudQY13THCCBvZbfWRTNEe2wiXndUjMww/D0VxH80uhMs+V7V1AL5gUILAfGNEhUdbPeylMPDSXX6gafCrquys/ChCxKEyU23jM7EmBZ+o2dpyh3+o1hk4b2NSiIRmI5k8N+d0NPmoP8BmHala7yE0LdgKg9TMBr8spTPVi6DFFvhaz+koX9gVS22ZKnWp0g9ztg9lh4Oxp4lwCd3nF6fyd335Sq5SuJROtxqZEI6iUv6y7JX7bPTHa8faZn7Y70a4uFNu4+vf2HqNCpeCZyUiUuFeHCjZ1g3S5TV+woKqSE2KhLr0IgbVHi7rofqc8m/mdZ+KKG9VjBbXawbeIGg/Jfu3/A1XIsb2Km9HtMfGwmVX9ahMY4bh56Fn/KP4E8Jln6vZPpjlAmO8ONorGv/0vBgXUHFALDQiDteGYqVjMeunBH/c7HR8B5HKh4VE6sEZgR+zT1/O6aqHmzdGQT6k1JuwtzpwsfruS/FmKx/civGETnmlVdUFM3pVLkAXnXkUKIMMw+sVXHlhu+JabcfoL+K7MYky6VtK5y0jP1a4hN6+rXBRdfYfWi/e03R2oRSvWL7e4xcoSvBQtHxFV9Doh0OzAJ0UutyGQmuRCEeh2/I3WuR/o9lSfcFOlJ3b5voTHU1+o4urc/MNIZkPW8wPezP7R9Xn9CMt1WkrjOvKr9LwZhVx8iQjFvE2XitcNMvIzBibl9wRv7lopJBFSyxiIdLz6zImtMUt7XbLekgLF+7yM6Il9CKhMy5+sxURGzVKtvem4ky0x9BvK5TXTuqRM2KGEC5MBMKFSezlVr7dirEmemzIf2nJAxp5UJp5Wy3fytTS7+70THJWAPXeFNnZ8TL/mgmPS+hSb3TqLFWfzkc4KrYvuPXGZqTsU/Y44qT6YC5XkhS8bL6BSIxc0M5ep+5VaX+iM55VxOcaCpi0Hd7y3G3KJOvTClsl0nKz6q9avfYNDQ/5i8bGEfAYB6e8vhBt+iNgxxhgrOz7/LtZ8p/PF8Liigdkq67C/LxYal53RQ7pcNAzn3Ng9vwVZul4OD0WCqKN2TFURtgPX9DALnPv/Q4aCZeyjMFonGyLsTYho6KBqJ4d66XErV1JuKYOnPorPiFRjhVSZf9I5ec1vHYWStoRLgX7cgXp0A1tjpUM9UBjuboxJ6MHav9NfBbDfx7whdztXKyILFeKFlcEduWCm6p8ifT5bodx4JnB15nt9uvRyyAacZF8W7QhP/l7+DeEy95XmnwTkVEEfitQ3/05pjxX36VZldN32dGarR4fYB/Y7AB4a5S87ipSb+cfzbeCzHlHyChg4i04lA8ztQNHOZ/Y1rwJ1dhXvr166fjdC+p7R8dj/ZmCYmaG4paY1q0enrm43i5jb8qpZ+rklAe+McRFDW6VHXKqb+j7OSwWPY7F22k9Z/cbTjyjZiW6EstPGUT5BT8pESyRc1AN4M7t+CcRsTL1qGcM5bmYTq9mP/F3kdzvKVmhZ9mLrORMN2dQb+HMym9wKRv4m1Rlt4MTSVPJ2nYWirjw78prY7p+/OuVqPqJRn73qk0/lIY69j/017/+jxBqfJ0XARUIUr853cYHU8p9kc1tyv996HTjbav4zaRscQwL/JFiyGUV2ya/r9jvJDojUFUzf+BS5MVM/GitKkUsD76nwjFWzhS7Gu7B8sQiLmUbL+rsui8igSrc80MQLnteQffaPPXGOfmZZvytnmBhzLeQuuGFt4K34CAI3ISAFRa+ELlJorgXBHZFICZcZH5KRL3UXyTXH/+Wpx7gPoTLA6zU/SiS6ot+JcaTpKz6Qvnha5qtHsNPLsUB526FAITLrWBGJtsi0EC46O7m5w2ft9uy6+7SgXC5O/YPOGcel9Bk7YRikGPfW3H0AcNB0e6aAITLXdcA8m9FoEa46K7Ul3S49YHVrYy81YshXG4V92PJTPTj6v7rk/LrzhZBMZAwV2NAeLaIPYcdENghAQiXHcJF0tsnEBMu5pMZeej5un0r9ilFCJd9qo0HZEs50j40MK481nx2wAOCg6LcLQEIl7vlj9xbEogJl5bJPKDLIVweUGXuX1FWtJidiOmZLFiKmVDxjzfuX0lg0QMiYIULt0feYp2MspZjM2aYVWoLjiXHa+yhfdZCg3CpRYQLQAAEQAAEQAAE9oUAhMu+1ATsAAEQAAEQAAEQqCUA4VKLCBeAAAiAAAiAAAjsCwEIl32pCdgBAiAAAiAAAiBQSwDCpRYRLgABEAABEAABENgXAhAu+1ITsAMEQAAEQAAEQKCWAIRLLSJcAAIgAAIgAAIgsC8EIFz2pSZgBwiAAAiAAAiAQC0BCJdaRLgABEAABEAABEBgXwhAuOxLTcAOEAABEAABEACBWgJbEi7F8tCdwZiOZwta12aLC0AABEAABEAABECgPYEtCReVsfpSZU7jwQHhw3ntKwJ3gAAIgAAIgAAI1BPYonAxmW0+U354QJ3DnC429QbgChAAARAAARAAARBoSmD7woU2tJqNqJM9oeHsa1M7cB0IgAAIgAAIgAAI1BLYgXAhupqPqZtl1BnOaFVrAi4AARAAARAAARAAgWYEdiBcioG6GYRLsxrAVSAAAiAAAiAAAo0J7EC4fKXZ8Akp4dIdz+mqsSm4EARAAARAAARAAATSBHYgXL5QPuhS1mSMy+aCZqM+ZVmHeqNTWmIwb7q2cBYEQAAEQAAEHjmBHQqXZzRd/JnGC+GS5oOzIAACIAACIAACDoEdCJc/aTF9RlnWQLg4puAPEAABEAABEAABEEgT2IFwIaL1J5oOnlBvfIZVdNP8cRYEQAAEQAAEQKAFgd0IF2XA+pzy4TMajHOaLy9bmIRLQQAEQAAEQAAEQCBMYHfCRee3ofV8Qr2sR+M5vmAUrgIcBQEQAAEQAAEQaEpgd8Jls6T50WsaIuLStC5wHQiAAAiAAAiAQA2B3QgXPVvoKca41MDHaRAAARAAARAAgXYEdiBc+FtFmFXUripwNQiAAAiAAAiAQB2BHQgXXjkXwqUOPs6DAAiAAAiAAAi0I7AD4dJi5dx2tuJqEAABEAABEACBR05gh8KlQ/3pOSVX8dfrvRzo7xp1Bm/pDNOmH3lzRPFBAARAAARAIE1gB8KFV86t/8jiZnlKo15HCxd8TTpdUTgLAiAAAiAAAiBAtAPhwoNzM8oGOS2bUl7mNOhPaZEM0TRNDNeBAAiAAAiAAAg8RAI7EC5EV/MxdbP6iEsJ9JIu8lfUxycCSiTYAwEQAAEQAAEQqBDYgXDhiMtTGs+/VTKsHrik5dlbOjw8ovM1wi1VPjgCAiAAAiAAAiDABLYvXNZnNO51qTc6pWWNDtks53SS55TPFvgYI9cItiAAAiAAAiAAAlECWxQul7Sc5zRWX4Ue5rRA9CQKHSdAAARAAARAAASuR2BLwuWKlvkL6gzGdIzoyfVqAneBAAiAAAiAAAjUEtiScKnNBxeAAAiAAAiAAAiAwI0JQLjcGCESAAEQAAEQAAEQuC0CEC63RRr5gAAIgAAIgAAI3JgAhMuNESIBEAABEAABEACB2yLw/wC86ukiyHCW6wAAAABJRU5ErkJggg==;" parent="1" vertex="1">
                    <mxGeometry x="9.999999999999972" y="727.7900000000002" width="259.92" height="99.68" as="geometry"/>
                </mxCell>
                <mxCell id="500" style="edgeStyle=orthogonalEdgeStyle;rounded=0;orthogonalLoop=1;jettySize=auto;html=1;entryX=0.5;entryY=0;entryDx=0;entryDy=0;" edge="1" parent="1" source="258" target="523">
                    <mxGeometry relative="1" as="geometry">
                        <mxPoint x="380" y="1070" as="targetPoint"/>
                    </mxGeometry>
                </mxCell>
                <mxCell id="258" value="Session Exists?" style="rhombus;whiteSpace=wrap;html=1;rounded=0;" parent="1" vertex="1">
                    <mxGeometry x="194.25" y="1000" width="120" height="50" as="geometry"/>
                </mxCell>
                <mxCell id="259" value="" style="endArrow=classic;html=1;exitX=0.5;exitY=1;exitDx=0;exitDy=0;entryX=0.5;entryY=0;entryDx=0;entryDy=0;" parent="1" source="161" target="258" edge="1">
                    <mxGeometry width="50" height="50" relative="1" as="geometry">
                        <mxPoint x="475.75" y="1080" as="sourcePoint"/>
                        <mxPoint x="525.75" y="1030" as="targetPoint"/>
                    </mxGeometry>
                </mxCell>
                <mxCell id="260" value="" style="endArrow=classic;html=1;exitX=0.5;exitY=1;exitDx=0;exitDy=0;" parent="1" source="258" target="249" edge="1">
                    <mxGeometry width="50" height="50" relative="1" as="geometry">
                        <mxPoint x="475.75" y="1080" as="sourcePoint"/>
                        <mxPoint x="525.75" y="1030" as="targetPoint"/>
                    </mxGeometry>
                </mxCell>
                <mxCell id="261" value="" style="endArrow=classic;html=1;exitX=0.5;exitY=1;exitDx=0;exitDy=0;" parent="1" source="249" edge="1">
                    <mxGeometry width="50" height="50" relative="1" as="geometry">
                        <mxPoint x="475.75" y="1080" as="sourcePoint"/>
                        <mxPoint x="254.75" y="1160" as="targetPoint"/>
                    </mxGeometry>
                </mxCell>
                <mxCell id="278" value="" style="edgeStyle=orthogonalEdgeStyle;rounded=0;orthogonalLoop=1;jettySize=auto;html=1;exitX=1;exitY=0.5;exitDx=0;exitDy=0;" parent="1" source="263" target="275" edge="1">
                    <mxGeometry relative="1" as="geometry">
                        <Array as="points">
                            <mxPoint x="1500" y="750"/>
                        </Array>
                    </mxGeometry>
                </mxCell>
                <mxCell id="279" style="edgeStyle=orthogonalEdgeStyle;rounded=0;orthogonalLoop=1;jettySize=auto;html=1;entryX=0.5;entryY=0;entryDx=0;entryDy=0;" parent="1" source="263" target="265" edge="1">
                    <mxGeometry relative="1" as="geometry"/>
                </mxCell>
                <mxCell id="280" style="edgeStyle=orthogonalEdgeStyle;rounded=0;orthogonalLoop=1;jettySize=auto;html=1;exitX=0;exitY=0.5;exitDx=0;exitDy=0;entryX=0.5;entryY=0;entryDx=0;entryDy=0;" parent="1" source="263" target="266" edge="1">
                    <mxGeometry relative="1" as="geometry">
                        <Array as="points">
                            <mxPoint x="1240" y="750"/>
                        </Array>
                    </mxGeometry>
                </mxCell>
                <mxCell id="281" style="edgeStyle=orthogonalEdgeStyle;rounded=0;orthogonalLoop=1;jettySize=auto;html=1;exitX=1;exitY=0.5;exitDx=0;exitDy=0;" parent="1" source="263" target="276" edge="1">
                    <mxGeometry relative="1" as="geometry">
                        <Array as="points">
                            <mxPoint x="1630" y="750"/>
                        </Array>
                    </mxGeometry>
                </mxCell>
                <mxCell id="282" style="edgeStyle=orthogonalEdgeStyle;rounded=0;orthogonalLoop=1;jettySize=auto;html=1;exitX=1;exitY=0.5;exitDx=0;exitDy=0;entryX=0.5;entryY=0;entryDx=0;entryDy=0;" parent="1" source="263" target="277" edge="1">
                    <mxGeometry relative="1" as="geometry"/>
                </mxCell>
                <mxCell id="512" value="" style="edgeStyle=orthogonalEdgeStyle;rounded=0;orthogonalLoop=1;jettySize=auto;html=1;" edge="1" parent="1" source="263" target="510">
                    <mxGeometry relative="1" as="geometry"/>
                </mxCell>
                <mxCell id="263" value="Which Client Commands?" style="rhombus;whiteSpace=wrap;html=1;rounded=0;" parent="1" vertex="1">
                    <mxGeometry x="1300" y="719.9999999999999" width="140" height="60" as="geometry"/>
                </mxCell>
                <mxCell id="390" value="" style="edgeStyle=orthogonalEdgeStyle;rounded=0;orthogonalLoop=1;jettySize=auto;html=1;" parent="1" source="265" target="386" edge="1">
                    <mxGeometry relative="1" as="geometry"/>
                </mxCell>
                <mxCell id="265" value="LO_ACK" style="rounded=0;whiteSpace=wrap;html=1;" parent="1" vertex="1">
                    <mxGeometry x="1050" y="812.82" width="120" height="60" as="geometry"/>
                </mxCell>
                <mxCell id="393" value="" style="edgeStyle=orthogonalEdgeStyle;rounded=0;orthogonalLoop=1;jettySize=auto;html=1;" parent="1" source="266" target="392" edge="1">
                    <mxGeometry relative="1" as="geometry"/>
                </mxCell>
                <mxCell id="266" value="LO_NAK&amp;lt;reason&amp;gt;" style="rounded=0;whiteSpace=wrap;html=1;" parent="1" vertex="1">
                    <mxGeometry x="1180" y="812.82" width="120" height="60" as="geometry"/>
                </mxCell>
                <mxCell id="502" value="" style="edgeStyle=orthogonalEdgeStyle;rounded=0;orthogonalLoop=1;jettySize=auto;html=1;" edge="1" parent="1" source="267" target="270">
                    <mxGeometry relative="1" as="geometry"/>
                </mxCell>
                <mxCell id="267" value="LEAVE_SESS" style="rounded=0;whiteSpace=wrap;html=1;" parent="1" vertex="1">
                    <mxGeometry x="483" y="932.26" width="97" height="40.32" as="geometry"/>
                </mxCell>
                <mxCell id="506" value="" style="edgeStyle=orthogonalEdgeStyle;rounded=0;orthogonalLoop=1;jettySize=auto;html=1;" edge="1" parent="1" source="268" target="505">
                    <mxGeometry relative="1" as="geometry"/>
                </mxCell>
                <mxCell id="268" value="Delete UserInfo in the corresponding session" style="rounded=0;whiteSpace=wrap;html=1;" parent="1" vertex="1">
                    <mxGeometry x="471.5" y="1072.26" width="120" height="51" as="geometry"/>
                </mxCell>
                <mxCell id="527" style="edgeStyle=orthogonalEdgeStyle;rounded=0;orthogonalLoop=1;jettySize=auto;html=1;" edge="1" parent="1" source="270">
                    <mxGeometry relative="1" as="geometry">
                        <mxPoint x="-450" y="410" as="targetPoint"/>
                        <Array as="points">
                            <mxPoint x="671" y="1022"/>
                            <mxPoint x="671" y="1480"/>
                            <mxPoint x="-800" y="1480"/>
                            <mxPoint x="-800" y="410"/>
                        </Array>
                    </mxGeometry>
                </mxCell>
                <mxCell id="270" value="Inside Session?" style="rhombus;whiteSpace=wrap;html=1;rounded=0;" parent="1" vertex="1">
                    <mxGeometry x="471.5" y="997.4200000000001" width="120" height="50" as="geometry"/>
                </mxCell>
                <mxCell id="272" value="" style="endArrow=classic;html=1;exitX=0.5;exitY=1;exitDx=0;exitDy=0;" parent="1" source="270" target="268" edge="1">
                    <mxGeometry width="50" height="50" relative="1" as="geometry">
                        <mxPoint x="753" y="1082.26" as="sourcePoint"/>
                        <mxPoint x="803" y="1032.26" as="targetPoint"/>
                    </mxGeometry>
                </mxCell>
                <mxCell id="397" value="" style="edgeStyle=orthogonalEdgeStyle;rounded=0;orthogonalLoop=1;jettySize=auto;html=1;" parent="1" source="275" target="394" edge="1">
                    <mxGeometry relative="1" as="geometry"/>
                </mxCell>
                <mxCell id="275" value="JN_NAK&amp;lt;sessionID, reason&amp;gt;" style="rounded=0;whiteSpace=wrap;html=1;" parent="1" vertex="1">
                    <mxGeometry x="1440" y="812.82" width="120" height="60" as="geometry"/>
                </mxCell>
                <mxCell id="398" value="" style="edgeStyle=orthogonalEdgeStyle;rounded=0;orthogonalLoop=1;jettySize=auto;html=1;" parent="1" source="276" target="395" edge="1">
                    <mxGeometry relative="1" as="geometry"/>
                </mxCell>
                <mxCell id="276" value="NS_ACK" style="rounded=0;whiteSpace=wrap;html=1;" parent="1" vertex="1">
                    <mxGeometry x="1570" y="812.82" width="120" height="60" as="geometry"/>
                </mxCell>
                <mxCell id="424" value="" style="edgeStyle=orthogonalEdgeStyle;rounded=0;orthogonalLoop=1;jettySize=auto;html=1;" parent="1" source="277" target="423" edge="1">
                    <mxGeometry relative="1" as="geometry"/>
                </mxCell>
                <mxCell id="277" value="QU_ACK&amp;lt;list&amp;gt;" style="rounded=0;whiteSpace=wrap;html=1;" parent="1" vertex="1">
                    <mxGeometry x="1700" y="812.82" width="120" height="60" as="geometry"/>
                </mxCell>
                <mxCell id="283" value="" style="endArrow=classic;html=1;exitX=0;exitY=0.5;exitDx=0;exitDy=0;entryX=0.5;entryY=0;entryDx=0;entryDy=0;" parent="1" source="125" target="102" edge="1">
                    <mxGeometry relative="1" as="geometry">
                        <mxPoint x="1110" y="570" as="sourcePoint"/>
                        <mxPoint x="1210" y="570" as="targetPoint"/>
                        <Array as="points">
                            <mxPoint x="970" y="513"/>
                        </Array>
                    </mxGeometry>
                </mxCell>
                <mxCell id="284" value="STDIN" style="edgeLabel;resizable=0;html=1;align=center;verticalAlign=middle;" parent="283" connectable="0" vertex="1">
                    <mxGeometry relative="1" as="geometry"/>
                </mxCell>
                <mxCell id="285" value="" style="endArrow=classic;html=1;exitX=1;exitY=0.5;exitDx=0;exitDy=0;entryX=0.5;entryY=0;entryDx=0;entryDy=0;" parent="1" source="125" target="168" edge="1">
                    <mxGeometry relative="1" as="geometry">
                        <mxPoint x="1415" y="515" as="sourcePoint"/>
                        <mxPoint x="1320" y="565" as="targetPoint"/>
                        <Array as="points">
                            <mxPoint x="1370" y="513"/>
                        </Array>
                    </mxGeometry>
                </mxCell>
                <mxCell id="286" value="tcp" style="edgeLabel;resizable=0;html=1;align=center;verticalAlign=middle;" parent="285" connectable="0" vertex="1">
                    <mxGeometry relative="1" as="geometry"/>
                </mxCell>
                <mxCell id="320" value="JOIN&amp;lt;session ID&amp;gt;" style="rounded=0;whiteSpace=wrap;html=1;" parent="1" vertex="1">
                    <mxGeometry x="-328.5" y="930" width="118.5" height="40.32" as="geometry"/>
                </mxCell>
                <mxCell id="415" value="" style="edgeStyle=orthogonalEdgeStyle;rounded=0;orthogonalLoop=1;jettySize=auto;html=1;" parent="1" source="321" target="322" edge="1">
                    <mxGeometry relative="1" as="geometry"/>
                </mxCell>
                <mxCell id="321" value="Insert user into the cppresponding session database" style="rounded=0;whiteSpace=wrap;html=1;" parent="1" vertex="1">
                    <mxGeometry x="-329.25" y="1300" width="120" height="51" as="geometry"/>
                </mxCell>
                <mxCell id="533" style="edgeStyle=orthogonalEdgeStyle;rounded=0;orthogonalLoop=1;jettySize=auto;html=1;" edge="1" parent="1" source="322">
                    <mxGeometry relative="1" as="geometry">
                        <mxPoint x="-269.25" y="1480" as="targetPoint"/>
                    </mxGeometry>
                </mxCell>
                <mxCell id="322" value="Return JN_ACK" style="rounded=0;whiteSpace=wrap;html=1;" parent="1" vertex="1">
                    <mxGeometry x="-317.75" y="1380" width="97" height="40.32" as="geometry"/>
                </mxCell>
                <mxCell id="385" value="" style="edgeStyle=orthogonalEdgeStyle;rounded=0;orthogonalLoop=1;jettySize=auto;html=1;" parent="1" source="324" target="334" edge="1">
                    <mxGeometry relative="1" as="geometry"/>
                </mxCell>
                <mxCell id="485" value="" style="edgeStyle=orthogonalEdgeStyle;rounded=0;orthogonalLoop=1;jettySize=auto;html=1;" edge="1" parent="1" source="324" target="391">
                    <mxGeometry relative="1" as="geometry"/>
                </mxCell>
                <mxCell id="324" value="Session Exists?" style="rhombus;whiteSpace=wrap;html=1;rounded=0;" parent="1" vertex="1">
                    <mxGeometry x="-329.25" y="1010" width="120" height="50" as="geometry"/>
                </mxCell>
                <mxCell id="325" value="" style="endArrow=classic;html=1;exitX=0.5;exitY=1;exitDx=0;exitDy=0;entryX=0.5;entryY=0;entryDx=0;entryDy=0;" parent="1" source="320" target="324" edge="1">
                    <mxGeometry width="50" height="50" relative="1" as="geometry">
                        <mxPoint x="-47" y="1080" as="sourcePoint"/>
                        <mxPoint x="3" y="1030" as="targetPoint"/>
                    </mxGeometry>
                </mxCell>
                <mxCell id="330" value="" style="edgeStyle=orthogonalEdgeStyle;rounded=0;orthogonalLoop=1;jettySize=auto;html=1;" parent="1" source="328" target="146" edge="1">
                    <mxGeometry relative="1" as="geometry"/>
                </mxCell>
                <mxCell id="328" value="&lt;b&gt;CMD Generator&lt;/b&gt;" style="whiteSpace=wrap;html=1;rounded=0;" parent="1" vertex="1">
                    <mxGeometry x="910" y="637.48" width="120" height="60" as="geometry"/>
                </mxCell>
                <mxCell id="534" style="edgeStyle=orthogonalEdgeStyle;rounded=0;orthogonalLoop=1;jettySize=auto;html=1;" edge="1" parent="1" source="334">
                    <mxGeometry relative="1" as="geometry">
                        <mxPoint x="10" y="1480" as="targetPoint"/>
                    </mxGeometry>
                </mxCell>
                <mxCell id="334" value="Return JN_NAK&amp;lt;session ID, session doesn't exist&amp;gt;" style="rounded=0;whiteSpace=wrap;html=1;" parent="1" vertex="1">
                    <mxGeometry x="-156" y="997.0999999999999" width="130" height="75.16" as="geometry"/>
                </mxCell>
                <mxCell id="465" style="edgeStyle=orthogonalEdgeStyle;rounded=0;orthogonalLoop=1;jettySize=auto;html=1;" parent="1" source="386" edge="1">
                    <mxGeometry relative="1" as="geometry">
                        <mxPoint x="1110" y="996.65" as="targetPoint"/>
                    </mxGeometry>
                </mxCell>
                <mxCell id="386" value="&lt;span&gt;&quot;Login Sucessful!&quot;&lt;/span&gt;" style="shape=hexagon;perimeter=hexagonPerimeter2;whiteSpace=wrap;html=1;fixedSize=1;" parent="1" vertex="1">
                    <mxGeometry x="1050" y="895.3199999999998" width="120" height="50.34" as="geometry"/>
                </mxCell>
                <mxCell id="417" style="edgeStyle=orthogonalEdgeStyle;rounded=0;orthogonalLoop=1;jettySize=auto;html=1;exitX=0.5;exitY=1;exitDx=0;exitDy=0;entryX=0.5;entryY=0;entryDx=0;entryDy=0;" parent="1" source="387" target="321" edge="1">
                    <mxGeometry relative="1" as="geometry"/>
                </mxCell>
                <mxCell id="495" value="" style="edgeStyle=orthogonalEdgeStyle;rounded=0;orthogonalLoop=1;jettySize=auto;html=1;" edge="1" parent="1" source="387" target="494">
                    <mxGeometry relative="1" as="geometry"/>
                </mxCell>
                <mxCell id="387" value="User in the session requesting?" style="rhombus;whiteSpace=wrap;html=1;rounded=0;" parent="1" vertex="1">
                    <mxGeometry x="-340" y="1210" width="141.5" height="70" as="geometry"/>
                </mxCell>
                <mxCell id="405" value="" style="edgeStyle=orthogonalEdgeStyle;rounded=0;orthogonalLoop=1;jettySize=auto;html=1;" parent="1" source="391" target="401" edge="1">
                    <mxGeometry relative="1" as="geometry"/>
                </mxCell>
                <mxCell id="486" value="" style="edgeStyle=orthogonalEdgeStyle;rounded=0;orthogonalLoop=1;jettySize=auto;html=1;" edge="1" parent="1" source="391" target="387">
                    <mxGeometry relative="1" as="geometry"/>
                </mxCell>
                <mxCell id="391" value="User currently in another session?" style="rhombus;whiteSpace=wrap;html=1;rounded=0;" parent="1" vertex="1">
                    <mxGeometry x="-340" y="1107.1000000000001" width="141.5" height="70" as="geometry"/>
                </mxCell>
                <mxCell id="430" style="edgeStyle=orthogonalEdgeStyle;rounded=0;orthogonalLoop=1;jettySize=auto;html=1;" parent="1" source="392" edge="1">
                    <mxGeometry relative="1" as="geometry">
                        <mxPoint x="1240" y="996.65" as="targetPoint"/>
                    </mxGeometry>
                </mxCell>
                <mxCell id="392" value="&lt;span&gt;&quot;Login Failed&quot;&lt;/span&gt;&lt;br&gt;&lt;span&gt;&quot;Reason&quot;&lt;/span&gt;" style="shape=hexagon;perimeter=hexagonPerimeter2;whiteSpace=wrap;html=1;fixedSize=1;" parent="1" vertex="1">
                    <mxGeometry x="1180" y="895.4799999999999" width="120" height="50.34" as="geometry"/>
                </mxCell>
                <mxCell id="432" style="edgeStyle=orthogonalEdgeStyle;rounded=0;orthogonalLoop=1;jettySize=auto;html=1;" parent="1" source="394" edge="1">
                    <mxGeometry relative="1" as="geometry">
                        <mxPoint x="1500" y="996.65" as="targetPoint"/>
                    </mxGeometry>
                </mxCell>
                <mxCell id="394" value="&quot;Join Session# Failed&quot;&lt;br&gt;&quot;Reason&quot;" style="shape=hexagon;perimeter=hexagonPerimeter2;whiteSpace=wrap;html=1;fixedSize=1;" parent="1" vertex="1">
                    <mxGeometry x="1440" y="895.4799999999999" width="120" height="50.34" as="geometry"/>
                </mxCell>
                <mxCell id="433" style="edgeStyle=orthogonalEdgeStyle;rounded=0;orthogonalLoop=1;jettySize=auto;html=1;" parent="1" source="395" edge="1">
                    <mxGeometry relative="1" as="geometry">
                        <mxPoint x="1630" y="996.65" as="targetPoint"/>
                    </mxGeometry>
                </mxCell>
                <mxCell id="395" value="&quot;Create Session Success&quot;" style="shape=hexagon;perimeter=hexagonPerimeter2;whiteSpace=wrap;html=1;fixedSize=1;" parent="1" vertex="1">
                    <mxGeometry x="1570" y="895.4799999999999" width="120" height="50.34" as="geometry"/>
                </mxCell>
                <mxCell id="535" style="edgeStyle=orthogonalEdgeStyle;rounded=0;orthogonalLoop=1;jettySize=auto;html=1;" edge="1" parent="1" source="401">
                    <mxGeometry relative="1" as="geometry">
                        <mxPoint x="10" y="1142.1000000000001" as="targetPoint"/>
                    </mxGeometry>
                </mxCell>
                <mxCell id="401" value="Return JN_NAK&amp;lt;session ID, user currently in another session&amp;gt;" style="rounded=0;whiteSpace=wrap;html=1;" parent="1" vertex="1">
                    <mxGeometry x="-156" y="1104.52" width="130" height="75.16" as="geometry"/>
                </mxCell>
                <mxCell id="406" value="error: client lost!" style="shape=hexagon;perimeter=hexagonPerimeter2;whiteSpace=wrap;html=1;fixedSize=1;" parent="1" vertex="1">
                    <mxGeometry x="50" y="540" width="120" height="37.48" as="geometry"/>
                </mxCell>
                <mxCell id="455" style="edgeStyle=orthogonalEdgeStyle;rounded=0;orthogonalLoop=1;jettySize=auto;html=1;entryX=1;entryY=0.5;entryDx=0;entryDy=0;" parent="1" source="411" target="77" edge="1">
                    <mxGeometry relative="1" as="geometry">
                        <Array as="points">
                            <mxPoint x="1500" y="330"/>
                        </Array>
                    </mxGeometry>
                </mxCell>
                <mxCell id="411" value="Connection closed" style="shape=hexagon;perimeter=hexagonPerimeter2;whiteSpace=wrap;html=1;fixedSize=1;" parent="1" vertex="1">
                    <mxGeometry x="1440" y="440" width="120" height="37.48" as="geometry"/>
                </mxCell>
                <mxCell id="420" value="" style="endArrow=classic;html=1;exitX=0.5;exitY=0;exitDx=0;exitDy=0;entryX=1;entryY=0.5;entryDx=0;entryDy=0;" parent="1" source="406" target="81" edge="1">
                    <mxGeometry relative="1" as="geometry">
                        <mxPoint x="-160" y="350" as="sourcePoint"/>
                        <mxPoint x="-60" y="350" as="targetPoint"/>
                        <Array as="points">
                            <mxPoint x="110" y="410"/>
                        </Array>
                    </mxGeometry>
                </mxCell>
                <mxCell id="421" value="Client Shutdown" style="edgeLabel;resizable=0;html=1;align=center;verticalAlign=middle;" parent="420" connectable="0" vertex="1">
                    <mxGeometry relative="1" as="geometry"/>
                </mxCell>
                <mxCell id="431" style="edgeStyle=orthogonalEdgeStyle;rounded=0;orthogonalLoop=1;jettySize=auto;html=1;entryX=0;entryY=0.5;entryDx=0;entryDy=0;" parent="1" source="423" target="84" edge="1">
                    <mxGeometry relative="1" as="geometry">
                        <Array as="points">
                            <mxPoint x="1760" y="1000"/>
                            <mxPoint x="870" y="1000"/>
                            <mxPoint x="870" y="420"/>
                        </Array>
                    </mxGeometry>
                </mxCell>
                <mxCell id="423" value="&lt;b&gt;List Generator&lt;/b&gt;" style="rounded=0;whiteSpace=wrap;html=1;" parent="1" vertex="1">
                    <mxGeometry x="1700" y="898.3" width="120" height="47.52" as="geometry"/>
                </mxCell>
                <mxCell id="437" style="edgeStyle=orthogonalEdgeStyle;rounded=0;orthogonalLoop=1;jettySize=auto;html=1;exitX=0.5;exitY=1;exitDx=0;exitDy=0;entryX=0.5;entryY=0;entryDx=0;entryDy=0;" parent="1" source="435" target="436" edge="1">
                    <mxGeometry relative="1" as="geometry"/>
                </mxCell>
                <mxCell id="435" value="QUERY" style="rounded=0;whiteSpace=wrap;html=1;" parent="1" vertex="1">
                    <mxGeometry x="46.5" y="930" width="100" height="40" as="geometry"/>
                </mxCell>
                <mxCell id="436" value="Return Session Database" style="rounded=0;whiteSpace=wrap;html=1;" parent="1" vertex="1">
                    <mxGeometry x="31.5" y="997.4199999999998" width="130" height="75.16" as="geometry"/>
                </mxCell>
                <mxCell id="466" value="" style="edgeStyle=orthogonalEdgeStyle;rounded=0;orthogonalLoop=1;jettySize=auto;html=1;" parent="1" source="438" target="442" edge="1">
                    <mxGeometry relative="1" as="geometry"/>
                </mxCell>
                <mxCell id="438" value="LOGIN&amp;lt;password&amp;gt;" style="rounded=0;whiteSpace=wrap;html=1;" parent="1" vertex="1">
                    <mxGeometry x="-666.25" y="929.9999999999998" width="122.5" height="40" as="geometry"/>
                </mxCell>
                <mxCell id="469" value="" style="edgeStyle=orthogonalEdgeStyle;rounded=0;orthogonalLoop=1;jettySize=auto;html=1;" parent="1" source="439" target="441" edge="1">
                    <mxGeometry relative="1" as="geometry"/>
                </mxCell>
                <mxCell id="439" value="Check Cliend ID and password (from DB)&lt;span style=&quot;color: rgba(0 , 0 , 0 , 0) ; font-family: monospace ; font-size: 0px&quot;&gt;%3CmxGraphModel%3E%3Croot%3E%3CmxCell%20id%3D%220%22%2F%3E%3CmxCell%20id%3D%221%22%20parent%3D%220%22%2F%3E%3CmxCell%20id%3D%222%22%20value%3D%22Return%20Session%20Database%22%20style%3D%22rounded%3D0%3BwhiteSpace%3Dwrap%3Bhtml%3D1%3B%22%20vertex%3D%221%22%20parent%3D%221%22%3E%3CmxGeometry%20x%3D%22465%22%20y%3D%221207.4199999999998%22%20width%3D%22130%22%20height%3D%2275.16%22%20as%3D%22geometry%22%2F%3E%3C%2FmxCell%3E%3C%2Froot%3E%3C%2FmxGraphModel%3E()&lt;/span&gt;" style="rounded=0;whiteSpace=wrap;html=1;" parent="1" vertex="1">
                    <mxGeometry x="-670" y="1059.6799999999996" width="130" height="75.16" as="geometry"/>
                </mxCell>
                <mxCell id="473" value="" style="edgeStyle=orthogonalEdgeStyle;rounded=0;orthogonalLoop=1;jettySize=auto;html=1;" parent="1" source="441" target="444" edge="1">
                    <mxGeometry relative="1" as="geometry"/>
                </mxCell>
                <mxCell id="441" value="Correct?" style="rhombus;whiteSpace=wrap;html=1;rounded=0;" parent="1" vertex="1">
                    <mxGeometry x="-665" y="1159.6799999999998" width="120" height="50" as="geometry"/>
                </mxCell>
                <mxCell id="467" value="" style="edgeStyle=orthogonalEdgeStyle;rounded=0;orthogonalLoop=1;jettySize=auto;html=1;" parent="1" source="442" target="443" edge="1">
                    <mxGeometry relative="1" as="geometry"/>
                </mxCell>
                <mxCell id="468" value="" style="edgeStyle=orthogonalEdgeStyle;rounded=0;orthogonalLoop=1;jettySize=auto;html=1;" parent="1" source="442" target="439" edge="1">
                    <mxGeometry relative="1" as="geometry"/>
                </mxCell>
                <mxCell id="442" value="Already Loged in?" style="rhombus;whiteSpace=wrap;html=1;rounded=0;" parent="1" vertex="1">
                    <mxGeometry x="-665" y="989.6799999999998" width="120" height="50" as="geometry"/>
                </mxCell>
                <mxCell id="530" style="edgeStyle=orthogonalEdgeStyle;rounded=0;orthogonalLoop=1;jettySize=auto;html=1;" edge="1" parent="1" source="443">
                    <mxGeometry relative="1" as="geometry">
                        <mxPoint x="-360" y="1480" as="targetPoint"/>
                    </mxGeometry>
                </mxCell>
                <mxCell id="443" value="Return LO_NAK&amp;lt;user has logged in&amp;gt;" style="rounded=0;whiteSpace=wrap;html=1;" parent="1" vertex="1">
                    <mxGeometry x="-520" y="977.0999999999995" width="130" height="75.16" as="geometry"/>
                </mxCell>
                <mxCell id="532" style="edgeStyle=orthogonalEdgeStyle;rounded=0;orthogonalLoop=1;jettySize=auto;html=1;" edge="1" parent="1" source="444">
                    <mxGeometry relative="1" as="geometry">
                        <mxPoint x="-605" y="1480" as="targetPoint"/>
                    </mxGeometry>
                </mxCell>
                <mxCell id="444" value="Return LO_ACK" style="rounded=0;whiteSpace=wrap;html=1;" parent="1" vertex="1">
                    <mxGeometry x="-670" y="1237.6799999999998" width="130" height="37.16" as="geometry"/>
                </mxCell>
                <mxCell id="453" value="" style="group" parent="1" vertex="1" connectable="0">
                    <mxGeometry x="293.58000000000004" y="357.66" width="415.75" height="309.68" as="geometry"/>
                </mxCell>
                <mxCell id="379" value="recv+size" style="swimlane;" parent="453" vertex="1">
                    <mxGeometry width="394.25" height="290" as="geometry"/>
                </mxCell>
                <mxCell id="366" value="FD_CLR()&amp;nbsp;" style="rounded=0;whiteSpace=wrap;html=1;" parent="379" vertex="1">
                    <mxGeometry x="305.75" y="159.68" width="79" height="30" as="geometry"/>
                </mxCell>
                <mxCell id="452" value="" style="edgeStyle=orthogonalEdgeStyle;rounded=0;orthogonalLoop=1;jettySize=auto;html=1;" parent="379" source="450" target="366" edge="1">
                    <mxGeometry relative="1" as="geometry"/>
                </mxCell>
                <mxCell id="450" value="close()" style="whiteSpace=wrap;html=1;rounded=0;" parent="379" vertex="1">
                    <mxGeometry x="215.75" y="162.34" width="55.75" height="24.68" as="geometry"/>
                </mxCell>
                <mxCell id="356" value="recv()" style="rounded=0;whiteSpace=wrap;html=1;" parent="453" vertex="1">
                    <mxGeometry x="64.25" y="67.18" width="120" height="60" as="geometry"/>
                </mxCell>
                <mxCell id="357" value="" style="endArrow=classic;html=1;entryX=0.5;entryY=0;entryDx=0;entryDy=0;" parent="453" target="356" edge="1">
                    <mxGeometry x="-5.75" y="-0.3199999999999932" as="geometry">
                        <mxPoint x="124.25" y="27.180000000000007" as="sourcePoint"/>
                        <mxPoint x="-485.75" y="-542.8199999999999" as="targetPoint"/>
                    </mxGeometry>
                </mxCell>
                <mxCell id="358" value="read Size" style="edgeLabel;resizable=0;html=1;align=center;verticalAlign=middle;" parent="357" connectable="0" vertex="1">
                    <mxGeometry relative="1" as="geometry"/>
                </mxCell>
                <mxCell id="359" value="full fill the buffer?" style="rhombus;whiteSpace=wrap;html=1;rounded=0;" parent="453" vertex="1">
                    <mxGeometry x="54.25" y="219.68" width="140" height="50" as="geometry"/>
                </mxCell>
                <mxCell id="361" value="" style="endArrow=classic;html=1;entryX=0;entryY=0.5;entryDx=0;entryDy=0;exitX=0;exitY=0.5;exitDx=0;exitDy=0;" parent="453" source="359" target="356" edge="1">
                    <mxGeometry x="-5.75" y="-0.3199999999999932" as="geometry">
                        <mxPoint x="-935.75" y="-472.82" as="sourcePoint"/>
                        <mxPoint x="-835.75" y="-472.82" as="targetPoint"/>
                        <Array as="points">
                            <mxPoint x="14.25" y="244.68"/>
                            <mxPoint x="14.25" y="97.18"/>
                        </Array>
                    </mxGeometry>
                </mxCell>
                <mxCell id="362" value="NO" style="edgeLabel;resizable=0;html=1;align=center;verticalAlign=middle;" parent="361" connectable="0" vertex="1">
                    <mxGeometry relative="1" as="geometry"/>
                </mxCell>
                <mxCell id="363" value="" style="endArrow=classic;html=1;exitX=0.5;exitY=1;exitDx=0;exitDy=0;" parent="453" source="359" edge="1">
                    <mxGeometry x="-5.75" y="-0.3199999999999932" as="geometry">
                        <mxPoint x="-635.75" y="-390.32" as="sourcePoint"/>
                        <mxPoint x="124.25" y="309.68" as="targetPoint"/>
                    </mxGeometry>
                </mxCell>
                <mxCell id="368" value="" style="edgeStyle=orthogonalEdgeStyle;rounded=0;orthogonalLoop=1;jettySize=auto;html=1;" parent="453" source="365" target="359" edge="1">
                    <mxGeometry x="-5.75" y="-0.3199999999999932" as="geometry"/>
                </mxCell>
                <mxCell id="451" value="" style="edgeStyle=orthogonalEdgeStyle;rounded=0;orthogonalLoop=1;jettySize=auto;html=1;" parent="453" source="365" target="450" edge="1">
                    <mxGeometry relative="1" as="geometry"/>
                </mxCell>
                <mxCell id="365" value="eof?" style="rhombus;whiteSpace=wrap;html=1;rounded=0;" parent="453" vertex="1">
                    <mxGeometry x="64.25" y="149.68" width="120" height="50" as="geometry"/>
                </mxCell>
                <mxCell id="369" value="" style="edgeStyle=orthogonalEdgeStyle;rounded=0;orthogonalLoop=1;jettySize=auto;html=1;" parent="453" source="356" target="365" edge="1">
                    <mxGeometry x="-5.75" y="-0.3199999999999932" as="geometry"/>
                </mxCell>
                <mxCell id="377" value="" style="endArrow=classic;html=1;exitX=1;exitY=0.5;exitDx=0;exitDy=0;" parent="453" source="366" edge="1">
                    <mxGeometry x="-5.75" y="-0.3199999999999932" as="geometry">
                        <mxPoint x="297.25" y="282.18" as="sourcePoint"/>
                        <mxPoint x="415.75" y="174.68" as="targetPoint"/>
                        <Array as="points"/>
                    </mxGeometry>
                </mxCell>
                <mxCell id="471" value="" style="edgeStyle=orthogonalEdgeStyle;rounded=0;orthogonalLoop=1;jettySize=auto;html=1;exitX=1;exitY=0.5;exitDx=0;exitDy=0;" parent="1" source="441" target="472" edge="1">
                    <mxGeometry relative="1" as="geometry">
                        <mxPoint x="-540.0000000000002" y="1184.68" as="sourcePoint"/>
                    </mxGeometry>
                </mxCell>
                <mxCell id="531" style="edgeStyle=orthogonalEdgeStyle;rounded=0;orthogonalLoop=1;jettySize=auto;html=1;" edge="1" parent="1" source="472">
                    <mxGeometry relative="1" as="geometry">
                        <mxPoint x="-360" y="1184.9999999999993" as="targetPoint"/>
                    </mxGeometry>
                </mxCell>
                <mxCell id="472" value="Return LO_NAK&amp;lt;Id or psswd incorrect&amp;gt;" style="rounded=0;whiteSpace=wrap;html=1;" parent="1" vertex="1">
                    <mxGeometry x="-520" y="1147.4199999999994" width="130" height="75.16" as="geometry"/>
                </mxCell>
                <mxCell id="493" value="" style="edgeStyle=orthogonalEdgeStyle;rounded=0;orthogonalLoop=1;jettySize=auto;html=1;exitX=1;exitY=0.5;exitDx=0;exitDy=0;" edge="1" target="494" parent="1" source="387">
                    <mxGeometry relative="1" as="geometry">
                        <mxPoint x="-198.49999999999977" y="1245.0000000000002" as="sourcePoint"/>
                    </mxGeometry>
                </mxCell>
                <mxCell id="536" style="edgeStyle=orthogonalEdgeStyle;rounded=0;orthogonalLoop=1;jettySize=auto;html=1;" edge="1" parent="1" source="494">
                    <mxGeometry relative="1" as="geometry">
                        <mxPoint x="10" y="1245" as="targetPoint"/>
                    </mxGeometry>
                </mxCell>
                <mxCell id="494" value="Return JN_NAK&amp;lt;session ID, already in session&amp;gt;" style="rounded=0;whiteSpace=wrap;html=1;" vertex="1" parent="1">
                    <mxGeometry x="-156" y="1207.4199999999998" width="130" height="75.16" as="geometry"/>
                </mxCell>
                <mxCell id="508" value="" style="edgeStyle=orthogonalEdgeStyle;rounded=0;orthogonalLoop=1;jettySize=auto;html=1;" edge="1" parent="1" source="505" target="507">
                    <mxGeometry relative="1" as="geometry"/>
                </mxCell>
                <mxCell id="505" value="Session Empty?" style="rhombus;whiteSpace=wrap;html=1;rounded=0;" vertex="1" parent="1">
                    <mxGeometry x="471.5" y="1147.1000000000001" width="120" height="50" as="geometry"/>
                </mxCell>
                <mxCell id="538" style="edgeStyle=orthogonalEdgeStyle;rounded=0;orthogonalLoop=1;jettySize=auto;html=1;" edge="1" parent="1" source="507">
                    <mxGeometry relative="1" as="geometry">
                        <mxPoint x="531.5" y="1480" as="targetPoint"/>
                    </mxGeometry>
                </mxCell>
                <mxCell id="507" value="Delete Session" style="whiteSpace=wrap;html=1;rounded=0;" vertex="1" parent="1">
                    <mxGeometry x="471.5" y="1222.5800000000002" width="120" height="60" as="geometry"/>
                </mxCell>
                <mxCell id="509" value="" style="edgeStyle=orthogonalEdgeStyle;rounded=0;orthogonalLoop=1;jettySize=auto;html=1;" edge="1" source="510" target="511" parent="1">
                    <mxGeometry relative="1" as="geometry"/>
                </mxCell>
                <mxCell id="510" value="JN_ACK&amp;lt;sessionID&amp;gt;" style="rounded=0;whiteSpace=wrap;html=1;" vertex="1" parent="1">
                    <mxGeometry x="1310" y="812.6600000000001" width="120" height="60" as="geometry"/>
                </mxCell>
                <mxCell id="513" style="edgeStyle=orthogonalEdgeStyle;rounded=0;orthogonalLoop=1;jettySize=auto;html=1;exitX=0.5;exitY=1;exitDx=0;exitDy=0;" edge="1" parent="1" source="511">
                    <mxGeometry relative="1" as="geometry">
                        <mxPoint x="1370.1176470588234" y="996.65" as="targetPoint"/>
                    </mxGeometry>
                </mxCell>
                <mxCell id="511" value="&quot;Join session# successful&quot;" style="shape=hexagon;perimeter=hexagonPerimeter2;whiteSpace=wrap;html=1;fixedSize=1;" vertex="1" parent="1">
                    <mxGeometry x="1310" y="895.3199999999999" width="120" height="50.34" as="geometry"/>
                </mxCell>
                <mxCell id="517" value="" style="endArrow=classic;html=1;entryX=0;entryY=0.5;entryDx=0;entryDy=0;exitX=0;exitY=0.5;exitDx=0;exitDy=0;startArrow=none;" edge="1" parent="1" target="57">
                    <mxGeometry relative="1" as="geometry">
                        <mxPoint x="830" y="300" as="sourcePoint"/>
                        <mxPoint x="800" y="340" as="targetPoint"/>
                        <Array as="points">
                            <mxPoint x="830" y="150"/>
                        </Array>
                    </mxGeometry>
                </mxCell>
                <mxCell id="520" value="" style="endArrow=none;html=1;entryX=0;entryY=0.5;entryDx=0;entryDy=0;exitX=0;exitY=0.5;exitDx=0;exitDy=0;" edge="1" parent="1" source="146">
                    <mxGeometry relative="1" as="geometry">
                        <mxPoint x="910" y="750.3199999999999" as="sourcePoint"/>
                        <mxPoint x="830" y="300" as="targetPoint"/>
                        <Array as="points">
                            <mxPoint x="830" y="750"/>
                        </Array>
                    </mxGeometry>
                </mxCell>
                <mxCell id="521" value="EXIT" style="edgeLabel;resizable=0;html=1;align=center;verticalAlign=middle;" connectable="0" vertex="1" parent="520">
                    <mxGeometry relative="1" as="geometry"/>
                </mxCell>
                <mxCell id="522" value="reset Sock&lt;br&gt;clear FD_set" style="rounded=0;whiteSpace=wrap;html=1;shadow=0;" vertex="1" parent="1">
                    <mxGeometry x="770" y="300" width="120" height="60" as="geometry"/>
                </mxCell>
                <mxCell id="523" value="NOT DETERMINED YET!!!!!" style="rounded=0;whiteSpace=wrap;html=1;shadow=0;" vertex="1" parent="1">
                    <mxGeometry x="330" y="1074.1299999999999" width="120" height="42.74" as="geometry"/>
                </mxCell>
                <mxCell id="542" style="edgeStyle=orthogonalEdgeStyle;rounded=0;orthogonalLoop=1;jettySize=auto;html=1;exitX=0.5;exitY=1;exitDx=0;exitDy=0;entryX=0.5;entryY=0;entryDx=0;entryDy=0;" edge="1" parent="1" source="539" target="263">
                    <mxGeometry relative="1" as="geometry"/>
                </mxCell>
                <mxCell id="539" value="&lt;b&gt;Deseralize&lt;br&gt;to Structure&lt;/b&gt;" style="whiteSpace=wrap;html=1;rounded=0;" vertex="1" parent="1">
                    <mxGeometry x="1310" y="637.31" width="120" height="60" as="geometry"/>
                </mxCell>
            </root>
        </mxGraphModel>
    </diagram>
</mxfile>